<svg width="16" height="16" xmlns="http://www.w3.org/2000/svg"><path d="M11.547 2.09a.579.579 0 00-.097-.288c-.222-.277-.646-.312-.947-.079L9.236 2.765h1.71a.6.6 0 00.601-.601V2.09zm-4.767.675L5.514 1.724a.723.723 0 00-.445-.151.635.635 0 00-.502.229.578.578 0 00-.096.288v.074a.6.6 0 00.601.601H6.78zM12.632.833c.269.328.434.799.434 1.231v.073c0 1.155-.95 2.093-2.12 2.093H5.072c-1.169 0-2.121-.938-2.121-2.093v-.073c0-.432.167-.903.436-1.229C4.131-.073 5.51-.209 6.46.529l1.547 1.258L9.558.528c.951-.738 2.328-.601 3.074.305zm-5.619 4.18h1.988v2.963H7.013V5.013zm2.987 0h4.925v2.963H10V5.013zm0 4h3.925v4.963a2 2 0 01-2 2H10V9.013zm-3.999 0H2.076v4.963a2 2 0 002 2h1.925V9.013zm-4.925-4h4.925v2.963H1.076V5.013zM7.013 9h1.988v6.976H7.013V9z" fill="#00AEF0"/></svg>