<svg xmlns="http://www.w3.org/2000/svg" xmlns:xlink="http://www.w3.org/1999/xlink" viewBox="0 0 259.83 232.14"><defs><style>.cls-1{fill:none;}.cls-2{isolation:isolate;}.cls-3{fill:#234f4e;}.cls-4{fill:#39aaaa;}.cls-5{clip-path:url(#clip-path);}.cls-6{fill:#1185cf;}.cls-7{fill:#d8ff00;}.cls-8{fill:#eb3653;}.cls-9{clip-path:url(#clip-path-2);}.cls-10{fill:#2d918e;}.cls-11{fill:#155151;}.cls-12{fill:#eadf9f;}.cls-13,.cls-16{fill:#fff;}.cls-13,.cls-17{opacity:0.3;}.cls-14,.cls-21{opacity:0.2;}.cls-15{opacity:0.1;}.cls-18{fill:#d13453;}.cls-19{fill:#e5e5e5;}.cls-20{fill:#4d4d4d;}.cls-21{fill:#545454;mix-blend-mode:multiply;}</style><clipPath id="clip-path" transform="translate(-5.84 -1.88)"><circle id="SVGID" class="cls-1" cx="148.21" cy="114.71" r="110.51"/></clipPath><clipPath id="clip-path-2" transform="translate(-5.84 -1.88)"><path id="SVGID-2" data-name="SVGID" class="cls-1" d="M.05,101.06c-1.6,2,37.48,18.93,37.65,21.43A110.73,110.73,0,1,0,211.85,24.33C208.48,22,211.77,2.16,208.14.17S194,14,190.12,12.42A110.82,110.82,0,0,0,38.62,98.76C37.84,104,51.2,38.1.05,101.06Z"/></clipPath></defs><title>webtestit-release-webinar</title><g class="cls-2"><g id="Ebene_2" data-name="Ebene 2"><g id="Ebene_1-2" data-name="Ebene 1"><circle class="cls-3" cx="142.37" cy="113.28" r="110.51"/><path class="cls-4" d="M148.21,4.66A110.51,110.51,0,1,1,37.7,115.16,110.5,110.5,0,0,1,148.21,4.66m0-2.78A113.29,113.29,0,0,0,68.1,195.27,113.29,113.29,0,0,0,228.31,35.06a112.52,112.52,0,0,0-80.1-33.18Z" transform="translate(-5.84 -1.88)"/><g class="cls-5"><circle class="cls-6" cx="133.13" cy="59.41" r="5.09"/><circle class="cls-7" cx="41.46" cy="101.84" r="3.44"/><circle class="cls-8" cx="229.53" cy="74.17" r="3.44"/><ellipse class="cls-8" cx="84.19" cy="208.99" rx="4.69" ry="2.74" transform="translate(-136.6 139.55) rotate(-50.61)"/><ellipse class="cls-7" cx="80.23" cy="26.24" rx="4.69" ry="2.74" transform="translate(3.2 69.71) rotate(-50.61)"/><ellipse class="cls-6" cx="85.49" cy="87.9" rx="4.69" ry="2.74" transform="translate(-42.54 96.31) rotate(-50.61)"/><ellipse class="cls-6" cx="200.5" cy="90.49" rx="4.69" ry="2.74" transform="translate(-2.51 186.14) rotate(-50.61)"/><ellipse class="cls-6" cx="219.88" cy="153.98" rx="4.69" ry="2.74" transform="translate(-44.5 224.31) rotate(-50.61)"/><ellipse class="cls-6" cx="101.42" cy="29.91" rx="4.69" ry="2.74" transform="translate(8.1 87.43) rotate(-50.61)"/><ellipse class="cls-7" cx="193.7" cy="51.52" rx="4.69" ry="2.74" transform="translate(25.12 166.65) rotate(-50.61)"/><ellipse class="cls-7" cx="148.21" cy="95.63" rx="4.69" ry="2.74" transform="translate(-25.59 147.6) rotate(-50.61)"/><ellipse class="cls-7" cx="153.3" cy="10.24" rx="4.69" ry="2.74" transform="translate(42.26 120.34) rotate(-50.61)"/><ellipse class="cls-7" cx="235.72" cy="108.29" rx="4.69" ry="2.74" transform="translate(-3.4 219.86) rotate(-50.61)"/><ellipse class="cls-7" cx="179.49" cy="188.13" rx="4.69" ry="2.74" transform="translate(-85.65 205.58) rotate(-50.61)"/><ellipse class="cls-7" cx="138.07" cy="87.69" rx="1.84" ry="3.95" transform="translate(-31.07 76.49) rotate(-29.15)"/><ellipse class="cls-8" cx="189.97" cy="71.62" rx="3.95" ry="1.84" transform="translate(104.63 256.55) rotate(-87.6)"/><ellipse class="cls-8" cx="151.93" cy="42.46" rx="3.95" ry="1.84" transform="translate(97.31 190.59) rotate(-87.6)"/><ellipse class="cls-8" cx="175.24" cy="173.43" rx="3.95" ry="1.84" transform="translate(-11.21 339.38) rotate(-87.6)"/><ellipse class="cls-8" cx="215.04" cy="79.1" rx="3.95" ry="1.84" transform="translate(121.18 288.76) rotate(-87.6)"/><ellipse class="cls-7" cx="125.72" cy="123.65" rx="3.95" ry="1.84" transform="translate(-8.92 242.22) rotate(-87.6)"/><ellipse class="cls-7" cx="193.33" cy="125.83" rx="3.95" ry="1.84" transform="translate(53.69 311.84) rotate(-87.6)"/><ellipse class="cls-8" cx="107.56" cy="97.31" rx="3.95" ry="1.84" transform="translate(-0.01 198.82) rotate(-87.6)"/><ellipse class="cls-8" cx="57.55" cy="80.56" rx="3.95" ry="1.84" transform="translate(-31.19 132.81) rotate(-87.6)"/><ellipse class="cls-8" cx="117.36" cy="178.85" rx="3.95" ry="1.84" transform="translate(-72.09 286.74) rotate(-87.6)"/><ellipse class="cls-8" cx="153.54" cy="118.36" rx="3.95" ry="1.84" transform="translate(23.02 264.93) rotate(-87.6)"/><ellipse class="cls-7" cx="93.07" cy="59.61" rx="3.95" ry="1.84" transform="translate(23.78 148.23) rotate(-87.6)"/><ellipse class="cls-8" cx="134.65" cy="31.45" rx="3.95" ry="1.84" transform="translate(91.76 162.79) rotate(-87.6)"/><ellipse class="cls-6" cx="110.14" cy="199.77" rx="3.95" ry="1.84" transform="translate(-99.9 299.57) rotate(-87.6)"/><ellipse class="cls-6" cx="72.27" cy="175.26" rx="3.95" ry="1.84" transform="translate(-111.69 238.25) rotate(-87.6)"/></g><g class="cls-9"><path class="cls-8" d="M79.83,109.84s-29.28-4.74-48-4.48S19.66,87.3,29.27,90.2s2.88,10.31.36,8.89a5.65,5.65,0,0,1-2.77-4.91c.14-.89-3.53,5.87,2.6,7.72,5.36,1.63,9.32-2.45,9.59-7.42s-6.42-9.71-13-9.79S13,91.21,12.83,98.28s7.24,12.14,11.34,13S80.8,117.4,80.8,117.4s1.71-.74,2.25-4C83.51,110.64,79.83,109.84,79.83,109.84Z" transform="translate(-5.84 -1.88)"/><path class="cls-6" d="M65.29,107.8l5.88.77-.2.59a13.25,13.25,0,0,0-.33,7.2h0l-6.34-.66h0a13.23,13.23,0,0,1,.67-7Z" transform="translate(-5.84 -1.88)"/><path class="cls-6" d="M52.25,106.44l5.88.77-.19.59a13.16,13.16,0,0,0-.33,7.2h0l-6.34-.66h0a13.13,13.13,0,0,1,.66-7Z" transform="translate(-5.84 -1.88)"/><path class="cls-6" d="M39,105.39l6.21.34-.2.58a13.29,13.29,0,0,0-.33,7.21h0l-6.34-.66h0A13.38,13.38,0,0,1,39,105.8Z" transform="translate(-5.84 -1.88)"/><path class="cls-6" d="M25.19,104.4l5.16,1-.47.69a8.89,8.89,0,0,0-.71,5.4l.4.47-5.87-.76h0a11.39,11.39,0,0,1,1.08-6Z" transform="translate(-5.84 -1.88)"/><path class="cls-6" d="M15.37,105.39s.62-3.58,5.46-4.35c-.82-2.17-.9-1.68-.93-3.56-2,0-5.46.52-6.89,2.9C13.85,103.93,14.5,104.37,15.37,105.39Z" transform="translate(-5.84 -1.88)"/><path class="cls-6" d="M15.17,91.12a5.53,5.53,0,0,1,6,2.27c1.75-2,2.24-2.44,3-2.79-.57-2.34-2-3.56-4.52-4C17.31,88.55,16.21,89.28,15.17,91.12Z" transform="translate(-5.84 -1.88)"/><path class="cls-6" d="M29.48,85.13s1.54,1.46-.21,5.07A13.14,13.14,0,0,1,33,92.07c2.25-.95,3.21-1.58,3.61-3.08A13.45,13.45,0,0,0,29.48,85.13Z" transform="translate(-5.84 -1.88)"/><path class="cls-6" d="M33.57,97.15s.56,1.52,4.27,1.49c-1.69,2.8-4,3.77-5.79,3.62-1.09-1.87-.92-2.64-.69-3.21A6,6,0,0,0,33.57,97.15Z" transform="translate(-5.84 -1.88)"/><path class="cls-8" d="M16.92,110.93a.39.39,0,0,1-.18,0,12.4,12.4,0,0,1-7.29-10.84,18.34,18.34,0,0,1,.89-6.8.42.42,0,0,1,.53-.25.43.43,0,0,1,.25.53,17.85,17.85,0,0,0-.84,6.5,11.43,11.43,0,0,0,6.82,10.12.41.41,0,0,1-.18.78Z" transform="translate(-5.84 -1.88)"/><path class="cls-7" d="M70.49,116.25l-18.71-1.71s-1.27-1.28-1.27-5a3.93,3.93,0,0,1,1.63-3.42l19,1.41a1.26,1.26,0,0,1,1,1.33l-.27,6.2A1.27,1.27,0,0,1,70.49,116.25Z" transform="translate(-5.84 -1.88)"/><path class="cls-10" d="M234.8,157.63a5.74,5.74,0,0,0,1.68-3.51l3.69-27.65a18.35,18.35,0,0,0-.19-6l-.62-3c-1.36-6.56-5.84-10.65-11-10l-3.57.47c-1.68.22-3.13,2-3.46,4.34l-.74,5.2a5.31,5.31,0,0,0,1.3,4.59l7.26,6.76a5.12,5.12,0,0,1,1.37,4l-1.09,21C229.4,157.07,232.13,160,234.8,157.63Z" transform="translate(-5.84 -1.88)"/><path class="cls-11" d="M232.8,160.21a4.05,4.05,0,0,1-1.72-.38c-2-.91-3.37-3.41-3.32-6.06l1.09-21a3.47,3.47,0,0,0-.82-2.65l-7.26-6.76a7,7,0,0,1-1.83-6.08l.74-5.2c.44-3.09,2.47-5.47,4.93-5.8l3.57-.46c6-.79,11.31,3.87,12.85,11.32l.62,3a20.1,20.1,0,0,1,.21,6.58l-3.68,27.66a7.51,7.51,0,0,1-2.24,4.55h0A4.71,4.71,0,0,1,232.8,160.21Zm-3.33-51.1a8.24,8.24,0,0,0-.85,0l-3.56.47c-.8.1-1.76,1.21-2,2.89l-.74,5.2a3.71,3.71,0,0,0,.77,3.1l7.27,6.76a6.81,6.81,0,0,1,1.9,5.33l-1.09,21a3.23,3.23,0,0,0,1.33,2.84c.14.06.5.22,1.15-.37h0a4.06,4.06,0,0,0,1.14-2.46l3.68-27.66a16.48,16.48,0,0,0-.16-5.44l-.62-3C236.6,112.55,233.29,109.11,229.47,109.11Z" transform="translate(-5.84 -1.88)"/><path class="cls-4" d="M253.1,167.5A116.88,116.88,0,0,1,235.85,193q-3.14,3.56-6.56,6.81a117.14,117.14,0,0,1-40.66,25.43l-1.25.44a113.17,113.17,0,0,1-15.18,4.26q-.76.17-1.53.3a144.47,144.47,0,0,1-8.94-25.53c-2.43-9.26-3.13-16.71-4.34-23.09-1.16-6.23-2.79-11.43-6.95-16.3l-18.53-12.36a31.67,31.67,0,0,0-12.29-4.86L85,142.31a16.7,16.7,0,0,1-11.75-8.19L64.63,119a18.73,18.73,0,0,1-1-2,18,18,0,0,1-.9-2.65,16.34,16.34,0,0,1-.39-2,18.68,18.68,0,0,1,.34-7.4l3.13-12.5a20.15,20.15,0,0,1,16.23-15l11.51-1.92,14.88-14.87a19,19,0,0,1,13.47-5.58H134a10.93,10.93,0,0,0,7.73-3.2l3-3a24.7,24.7,0,0,1,24-6.37L186,47.21a37.43,37.43,0,0,1,21.73,16l13.37,21a35.67,35.67,0,0,1,5.3,23.5c-.08.67-.19,1.33-.31,2l-.5,3.4a38.27,38.27,0,0,0,.22,12.5c.14.73.29,1.46.47,2.19l1.41,5.78a14.17,14.17,0,0,0,2.67,4.1,18.46,18.46,0,0,0,7.71,4.85c6,2.11,12.46,2,15.06,2.53,0,0,3.21.46,8.23.88-.88,3.27-1.91,6.49-3.06,9.63C261.76,157.74,257.07,165,253.1,167.5Z" transform="translate(-5.84 -1.88)"/><path class="cls-11" d="M162.25,41.65a24.6,24.6,0,0,1,6.51.88L186,47.21a37.43,37.43,0,0,1,21.73,16l13.37,21a35.67,35.67,0,0,1,5.3,23.5c-.08.67-.19,1.33-.31,2l-.5,3.4a38.27,38.27,0,0,0,.22,12.5c.14.73.29,1.46.47,2.19l1.41,5.78a14.17,14.17,0,0,0,2.67,4.1,18.46,18.46,0,0,0,7.71,4.85c6,2.11,12.46,2,15.06,2.53,0,0,3.21.46,8.23.88-.88,3.27-1.91,6.49-3.06,9.63,3.51,2.14-1.18,9.36-5.15,11.9A116.88,116.88,0,0,1,235.85,193q-3.14,3.56-6.56,6.81a117.14,117.14,0,0,1-40.66,25.43l-1.25.44a113.17,113.17,0,0,1-15.18,4.26q-.76.17-1.53.3a144.47,144.47,0,0,1-8.94-25.53c-2.43-9.26-3.13-16.71-4.34-23.09-1.16-6.23-2.79-11.43-6.95-16.3l-18.53-12.36a31.67,31.67,0,0,0-12.29-4.86L85,142.31a16.7,16.7,0,0,1-11.75-8.19L64.63,119a18.73,18.73,0,0,1-1-2,18,18,0,0,1-.9-2.65,16.34,16.34,0,0,1-.39-2,18.68,18.68,0,0,1,.34-7.4l3.13-12.5a20.15,20.15,0,0,1,16.23-15l11.51-1.92,14.88-14.87a19,19,0,0,1,13.47-5.58H134a10.93,10.93,0,0,0,7.73-3.2l3-3a24.72,24.72,0,0,1,17.48-7.25m0-3.41h0a27.94,27.94,0,0,0-19.89,8.24l-3,3a7.47,7.47,0,0,1-5.32,2.2H121.91A22.31,22.31,0,0,0,106,58.27L91.92,72.37,81.49,74.11a23.54,23.54,0,0,0-19,17.53l-3.13,12.5a21.92,21.92,0,0,0-.41,8.72,19.39,19.39,0,0,0,.47,2.34,20.38,20.38,0,0,0,1.07,3.14,24.23,24.23,0,0,0,1.15,2.35l8.65,15.12a20,20,0,0,0,14.15,9.86l34.6,5.76a28.15,28.15,0,0,1,11,4.34l18.12,12.09c3.45,4.19,4.86,8.78,5.9,14.35.37,2,.7,4.11,1.05,6.35a162.48,162.48,0,0,0,3.34,17,146.84,146.84,0,0,0,9.16,26.14l1.12,2.34,2.56-.45q.82-.15,1.65-.33a115.33,115.33,0,0,0,15.58-4.37c.44-.14.88-.3,1.3-.46a119.88,119.88,0,0,0,41.86-26.17c2.35-2.24,4.62-4.6,6.75-7a120.15,120.15,0,0,0,17.36-25.42c3.25-2.46,7.18-7.5,7.13-11.91a6.27,6.27,0,0,0-.76-3c.93-2.67,1.76-5.35,2.47-8l1.06-3.95-4.07-.34c-4.44-.37-7.46-.77-8-.84-.93-.18-2.06-.28-3.48-.4a45.25,45.25,0,0,1-11-2,14.83,14.83,0,0,1-6.31-3.92l0,0,0,0a10.81,10.81,0,0,1-1.91-2.87L229.55,127c-.14-.58-.28-1.2-.43-2a34.62,34.62,0,0,1-.2-11.36l.49-3.34c.11-.63.24-1.37.33-2.15a39.17,39.17,0,0,0-5.81-25.74l-13.37-21a40.73,40.73,0,0,0-23.71-17.48l-17.19-4.68a28.09,28.09,0,0,0-7.41-1Z" transform="translate(-5.84 -1.88)"/><path class="cls-12" d="M187.38,225.65a113.17,113.17,0,0,1-15.18,4.26q-.76.17-1.53.3a144.47,144.47,0,0,1-8.94-25.53c-2.43-9.26-3.13-16.71-4.34-23.09-1.16-6.23-2.79-11.43-6.95-16.3l-18.53-12.36a31.67,31.67,0,0,0-12.29-4.86s33-4.41,48.2,26.48c6.6,13.39,8.24,23.11,10.24,31.15,1.84,7.4,4,13.39,10.57,19.51Z" transform="translate(-5.84 -1.88)"/><path class="cls-13" d="M156.51,45.78c1-.17,1.79-.27,2.67-.35s1.71-.11,2.57-.16c1.71,0,3.43,0,5.13.13A54.41,54.41,0,0,1,177,47.06a56.15,56.15,0,0,1,9.69,3.44,49.51,49.51,0,0,1,4.57,2.38,6.8,6.8,0,0,1,1.91,1.84,7.3,7.3,0,0,1,1.28,2.75A2.09,2.09,0,0,1,193,59.94l-.1,0a8.18,8.18,0,0,1-5.22-.2c-.71-.27-1.38-.62-2.07-.93s-1.41-.55-2.11-.84c-1.38-.61-2.84-1-4.25-1.57-.72-.24-1.45-.43-2.17-.66s-1.45-.45-2.19-.63a88.83,88.83,0,0,0-8.9-2c-1.5-.24-3-.51-4.53-.69-.75-.1-1.51-.21-2.26-.28L157,51.93l-.29,0a3.09,3.09,0,0,1-.19-6.12Z" transform="translate(-5.84 -1.88)"/><path class="cls-14" d="M172.06,194.71c0-4.3-4.27-7.79-9.54-7.79-1.29,0-1.35,0-2.65,0,2.15,4.38,4.83,9.86,7.61,14.45A7.64,7.64,0,0,0,172.06,194.71Z" transform="translate(-5.84 -1.88)"/><path class="cls-14" d="M172.2,229.91q-.76.17-1.53.3c.36.75.72,1.5,1.09,2.23-.38-.72-.76-1.46-1.13-2.22-6.21-12.5-10.75-28.83-13.24-48.63-.06-.45-.12-.9-.17-1.36.73,2.08,1.63,4.33,2.68,6.69l.2.47a1.17,1.17,0,0,1,.05.11,126.37,126.37,0,0,0,7.33,13.87,122.88,122.88,0,0,0,7.35,10.77,91.25,91.25,0,0,0,12.55,13.51A113.17,113.17,0,0,1,172.2,229.91Z" transform="translate(-5.84 -1.88)"/><path class="cls-15" d="M62.59,114.29l16.33,5.54,20.45-4.09,24.54,8.18,20.06-8-20.14,10.42-24.58-6.15-20.14,4.78-13.63-4.57s-1.17-2-2-3.64A21.64,21.64,0,0,1,62.59,114.29Z" transform="translate(-5.84 -1.88)"/><path class="cls-4" d="M228.36,191.17c2.67.54,5.16,1.14,7.49,1.8q-3.14,3.56-6.56,6.81a117.14,117.14,0,0,1-40.66,25.43l-1.25.44a113.17,113.17,0,0,1-15.18,4.26,39.87,39.87,0,0,1,2.63-17.77,39.79,39.79,0,0,1,8.91-13.6l1.72-1.73S198.51,185.16,228.36,191.17Z" transform="translate(-5.84 -1.88)"/><path class="cls-11" d="M170.66,232,170.5,230a41.7,41.7,0,0,1,2.74-18.53,41.69,41.69,0,0,1,9.29-14.18l1.79-1.8c.56-.5,14-12.15,44.38-6h0c2.68.55,5.25,1.16,7.62,1.83l2.61.74-1.8,2c-2.09,2.37-4.33,4.7-6.66,6.91a118.07,118.07,0,0,1-41.25,25.8l-1.3.46a116.49,116.49,0,0,1-15.37,4.31Zm16-33.92L185,199.74a38.44,38.44,0,0,0-5.44,6.86,39.41,39.41,0,0,0-3.09,6.16,38.3,38.3,0,0,0-2.62,15.05,111.9,111.9,0,0,0,13-3.77l1.24-.44a114.52,114.52,0,0,0,40.06-25.06c1.58-1.5,3.12-3.06,4.6-4.64-1.51-.38-3.07-.73-4.69-1.06C200,187.2,187.32,197.47,186.63,198.05Z" transform="translate(-5.84 -1.88)"/><polygon class="cls-11" points="55.53 108.17 73.64 116.71 72.81 116.61 93.34 112.91 93.61 112.86 93.84 112.94 118.22 121.59 117.9 121.6 138.13 113.99 118.25 122.47 118.1 122.53 117.92 122.48 93.23 114.77 93.72 114.8 73.35 119.28 72.95 119.37 72.52 119.18 54.13 111.28 55.53 108.17"/><path class="cls-13" d="M69.9,96.56c.81-2.77,3-4.57,4.86-4s2.74,3.24,1.93,6-3.76,6-4.87,4S69.08,99.33,69.9,96.56Z" transform="translate(-5.84 -1.88)"/><path class="cls-11" d="M70.58,94.33c.81-2.77,2.78-4.63,4.39-4.16s2.25,3.11,1.44,5.88-3.5,6.09-4.39,4.16S69.76,97.11,70.58,94.33Z" transform="translate(-5.84 -1.88)"/><path class="cls-11" d="M209.81,138.23c-12-4.8,0,28.63,8.18,20.45S230.26,146.41,209.81,138.23Z" transform="translate(-5.84 -1.88)"/><path class="cls-11" d="M219.65,163.75c-7.16,10.77,28,5.88,21.7-3.8S231.86,145.42,219.65,163.75Z" transform="translate(-5.84 -1.88)"/><path class="cls-11" d="M212.1,119.39c7.71-2.71-5.56-9-8.59-3.53S199,124,212.1,119.39Z" transform="translate(-5.84 -1.88)"/><path class="cls-11" d="M213.25,134.78c7,4.14,3.25-10-2.85-8.84S201.26,127.73,213.25,134.78Z" transform="translate(-5.84 -1.88)"/><path class="cls-11" d="M154.65,59.65c1,8.47,15.93-8.23,8.88-10.71S153,45.23,154.65,59.65Z" transform="translate(-5.84 -1.88)"/><path class="cls-11" d="M253.1,167.5c-2.13,1.35-4,1.36-4.38-1.5-1.69-14.42,1.84-13.18,8.88-10.71a3,3,0,0,1,.65.31C261.76,157.74,257.07,165,253.1,167.5Z" transform="translate(-5.84 -1.88)"/><path class="cls-11" d="M173.23,59.62c1.47,3.2,5.09-5,2.06-5.16S170.74,54.16,173.23,59.62Z" transform="translate(-5.84 -1.88)"/><path class="cls-15" d="M94.94,115.86s-3.18-.46-5.54-7.78c-3.18-9.9-9-.74-5.71,10.47Z" transform="translate(-5.84 -1.88)"/><path class="cls-16" d="M90.48,116.09s-2.66-.3-4.32-7.12c-2.26-9.22-7.52-.3-5.28,10.15Z" transform="translate(-5.84 -1.88)"/><path class="cls-11" d="M80.11,120.44l-.23-1.1c-1.49-7,.15-14.47,3.3-15.19,1.23-.29,2.92.28,4,4.58,1.42,5.81,3.48,6.34,3.5,6.35l4.8.54-4.66,1.45Zm3.54-14.3h0c-1,.23-3.06,5.06-2,11.65l6.47-2c-1-1.08-2.13-3-3-6.54C84.53,106.62,83.8,106.14,83.65,106.14Z" transform="translate(-5.84 -1.88)"/><path class="cls-13" d="M117.64,89C110,81.79,112.12,66.87,123,62.19s23.12-.61,27.27,9.07-3.11,25.51-14.48,24C125.19,93.91,120.06,91.27,117.64,89Z" transform="translate(-5.84 -1.88)"/><path class="cls-16" d="M112.73,89.51c-3.13-7.31.81-16,8.8-19.43s17-.29,20.14,7-.42,20.62-8.8,19.42C125.05,95.4,115.86,96.81,112.73,89.51Z" transform="translate(-5.84 -1.88)"/><path class="cls-11" d="M128.2,68.69a14.37,14.37,0,0,1,13.47,8.41c3,7-.13,19.5-7.76,19.5a7.51,7.51,0,0,1-1-.08c-7.82-1.12-17,.29-20.14-7s.81-16,8.8-19.43a16.94,16.94,0,0,1,6.67-1.39m0-1.7h0a18.56,18.56,0,0,0-7.34,1.52,18.15,18.15,0,0,0-9.46,9.13,15.37,15.37,0,0,0-.24,12.54c2.85,6.63,10,7.12,16.24,7.55,1.74.12,3.55.24,5.23.48a8.81,8.81,0,0,0,9-4.46c3.13-4.75,3.84-12.2,1.64-17.33a16.13,16.13,0,0,0-15-9.43Z" transform="translate(-5.84 -1.88)"/><circle class="cls-11" cx="117.5" cy="74.35" r="4.75"/><g class="cls-17"><path class="cls-4" d="M123.49,94.19c-5.46,0-10.76-4.68-10.76-4.68,3.13,7.3,12.32,5.89,20.14,7,8.38,1.2,11.93-12.12,8.8-19.42C140,92.09,129,94.19,123.49,94.19Z" transform="translate(-5.84 -1.88)"/></g><path class="cls-13" d="M197.16,194.65c.81-.25,1.36-.39,2-.55s1.25-.27,1.88-.4c1.25-.21,2.5-.42,3.75-.54s2.49-.21,3.73-.28,2.48-.06,3.72-.06a85.92,85.92,0,0,1,14.7,1.52l3.59.76c1.21.25,2.37.62,3.56.93,2.37.58,4.67,1.41,7,2.17,1.17.36,2.29.84,3.42,1.28s2.27.87,3.38,1.37A13.44,13.44,0,0,1,251,203a11.14,11.14,0,0,1,2.51,3.23,2.2,2.2,0,0,1-1,3,2.26,2.26,0,0,1-.33.13l-.09,0a11.37,11.37,0,0,1-4,.51,14.3,14.3,0,0,1-3.46-.57c-2.18-.64-4.3-1.46-6.48-2.07s-4.33-1.29-6.52-1.81-4.37-1.06-6.57-1.53a122.14,122.14,0,0,0-13.23-2c-2.22-.16-4.43-.37-6.63-.37-1.1-.05-2.19,0-3.28,0-.53,0-1.09,0-1.61.06l-1.44.08-.46,0a3.57,3.57,0,0,1-1.26-7Z" transform="translate(-5.84 -1.88)"/><path class="cls-8" d="M208.13,7.59l-.21,4.12-.51,9.93L207.08,28l-.46,8.92-1.27,24.59a26,26,0,0,1-26.48,3.38A22.26,22.26,0,0,1,165,43.41l17-16.78,7-6.88,4.35-4.3L200.82,8l2.59-2.56a2.77,2.77,0,0,1,4.72,2.12Z" transform="translate(-5.84 -1.88)"/><circle class="cls-18" cx="174.83" cy="61.13" r="1.09"/><path class="cls-6" d="M172.08,36.44s.45,12.7,11.88,17.32a30.1,30.1,0,0,0,21.78,0l.47-9s-8.05,4.59-18-.71S178.7,29.9,178.7,29.9Z" transform="translate(-5.84 -1.88)"/><path class="cls-6" d="M207.08,28l-.46,8.92a29.29,29.29,0,0,1-15.27-1.72A18,18,0,0,1,182,26.63l7-6.88a19.07,19.07,0,0,0,6.67,5.71A20.36,20.36,0,0,0,207.08,28Z" transform="translate(-5.84 -1.88)"/><path class="cls-6" d="M207.92,11.71l-.51,9.93a27.73,27.73,0,0,1-7.76-1.91,17.78,17.78,0,0,1-6.34-4.28L200.82,8a21.69,21.69,0,0,0,3.11,2A21.67,21.67,0,0,0,207.92,11.71Z" transform="translate(-5.84 -1.88)"/><path class="cls-19" d="M121.78,151.76l-.35-.84c.32-.13,31.62-13.51,46.41-50.66C181.06,67,180.3,63.61,180.17,63.32a.34.34,0,0,0,.35.15l-.12-.91a.56.56,0,0,1,.51.23c1.2,1.56-3.14,15-12.22,37.81C153.75,138.12,122.1,151.63,121.78,151.76Z" transform="translate(-5.84 -1.88)"/><path class="cls-16" d="M137.67,162.21l6-9.87c3-4.94,5.29,6.43,1.07,14.11Z" transform="translate(-5.84 -1.88)"/><path class="cls-20" d="M137.67,162.21c1-2,2.05-4.28,3.23-6.57.6-1.14,1.22-2.29,1.86-3.44a4.23,4.23,0,0,1,1.55-1.79,1.81,1.81,0,0,1,.9-.21,1.39,1.39,0,0,1,.5.09,1.42,1.42,0,0,1,.41.2,2.77,2.77,0,0,1,.94,1,10.57,10.57,0,0,1,1,4,20.49,20.49,0,0,1-.13,3.92,18.9,18.9,0,0,1-2.51,7.35l-.42.68-.6-.41C142,165.45,139.66,163.71,137.67,162.21Zm0,0c2.74,1.33,5.19,2.42,7.48,3.61l-1,.28A22,22,0,0,0,146,155.68a8.76,8.76,0,0,0-.68-3.21,1,1,0,0,0-.26-.37s.13,0,0,0-.25.18-.39.34a5.38,5.38,0,0,0-.47.66c-.66,1-1.35,1.95-2,2.94Z" transform="translate(-5.84 -1.88)"/><path class="cls-4" d="M164.2,197.28a5.2,5.2,0,0,1-4-.37l-24.88-12.64a15.43,15.43,0,0,1-4.76-3.74l-2-2.4c-4.44-5.25-4.82-12.19-.93-16.95l2.72-3.32a4.77,4.77,0,0,1,5.8-.93l4.71,2.33a5,5,0,0,1,2.88,4l.72,11.31a5,5,0,0,0,2.35,3.74l17.75,11.3C167.28,191.51,167.89,196,164.2,197.28Z" transform="translate(-5.84 -1.88)"/><path class="cls-11" d="M162.72,199.22a7.24,7.24,0,0,1-3.25-.79l-24.88-12.64a17.25,17.25,0,0,1-5.29-4.16l-2-2.4c-5-5.87-5.36-13.73-1-19.13l2.72-3.32a6.48,6.48,0,0,1,7.88-1.38l4.71,2.33a6.69,6.69,0,0,1,3.82,5.45l.73,11.31a3.21,3.21,0,0,0,1.56,2.41l17.75,11.3a6.82,6.82,0,0,1,2.95,6.36,5.28,5.28,0,0,1-3.69,4.33h0A6.3,6.3,0,0,1,162.72,199.22Zm-29-41.16a2.62,2.62,0,0,0-2.06.88L129,162.26c-3.36,4.1-3,10.17.9,14.76l2,2.4a13.87,13.87,0,0,0,4.24,3.33L161,195.38a3.47,3.47,0,0,0,2.63.28h0a1.88,1.88,0,0,0,1.42-1.57,3.4,3.4,0,0,0-1.46-3l-17.7-11.27a6.62,6.62,0,0,1-3.13-5.07L142,163.4a3.28,3.28,0,0,0-1.93-2.61l-4.71-2.33A3.75,3.75,0,0,0,133.74,158.06Z" transform="translate(-5.84 -1.88)"/><path class="cls-16" d="M136.13,161.63a6,6,0,0,0-.62-7L129.36,148c-3.7-4-3.18,5.14.71,13,1.41,2.83,4.49,3.14,6.06.67Z" transform="translate(-5.84 -1.88)"/><path class="cls-20" d="M136,161.58a4.73,4.73,0,0,0,0-4.68,6.22,6.22,0,0,0-1.34-1.77,22.09,22.09,0,0,1-1.69-1.92c-1.06-1.34-2-2.82-3.08-4.11a6.28,6.28,0,0,0-1.77-1.64c-.35-.13-.46-.06-.58.19a2.9,2.9,0,0,0-.14,1.06,35.37,35.37,0,0,0,2.58,9.47c.28.78.61,1.53.91,2.3a4.93,4.93,0,0,0,1.13,1.76,2.48,2.48,0,0,0,2,.67A2.88,2.88,0,0,0,136,161.58Zm.18.11a4.47,4.47,0,0,1-2,1.76,3.65,3.65,0,0,1-2.88,0,4.72,4.72,0,0,1-2.19-2A23.61,23.61,0,0,1,128,159a26.24,26.24,0,0,1-1.49-5.06,14.47,14.47,0,0,1-.18-5.34,4,4,0,0,1,.52-1.39,1.24,1.24,0,0,1,.76-.54,1.31,1.31,0,0,1,.86.16,11.53,11.53,0,0,1,2,1.82c1.19,1.21,2.59,2.24,3.84,3.41A20.6,20.6,0,0,1,136,153.9a5.38,5.38,0,0,1,1.24,2.6A7.89,7.89,0,0,1,136.22,161.69Z" transform="translate(-5.84 -1.88)"/><path class="cls-16" d="M128.18,167.91a6.05,6.05,0,0,0-.63-7l-6.14-6.67c-3.71-4-3.18,5.14.71,13,1.4,2.82,4.48,3.13,6.06.66Z" transform="translate(-5.84 -1.88)"/><path class="cls-20" d="M128.09,167.86a4.73,4.73,0,0,0,0-4.68,6.48,6.48,0,0,0-1.33-1.77,22,22,0,0,1-1.69-1.91c-1.06-1.35-2-2.83-3.09-4.12a6.26,6.26,0,0,0-1.76-1.64c-.36-.13-.46-.06-.58.2a2.62,2.62,0,0,0-.14,1.05,35.72,35.72,0,0,0,2.57,9.47c.28.78.62,1.53.92,2.3a5,5,0,0,0,1.12,1.77,2.49,2.49,0,0,0,2,.66A2.88,2.88,0,0,0,128.09,167.86Zm.17.11a4.39,4.39,0,0,1-2,1.76,3.65,3.65,0,0,1-2.88,0,4.69,4.69,0,0,1-2.2-2,23.52,23.52,0,0,1-1.17-2.36,25.46,25.46,0,0,1-1.49-5.05,14.48,14.48,0,0,1-.18-5.34,4,4,0,0,1,.51-1.4,1.23,1.23,0,0,1,.77-.54,1.28,1.28,0,0,1,.85.16,10.82,10.82,0,0,1,2,1.82c1.2,1.22,2.6,2.24,3.85,3.41a22,22,0,0,1,1.77,1.84,5.21,5.21,0,0,1,1.24,2.6A7.77,7.77,0,0,1,128.26,168Z" transform="translate(-5.84 -1.88)"/><path class="cls-21" d="M208.13,7.59l-.21,4.12-.51,9.93L207.08,28l-.46,8.92-1.27,24.59a25.48,25.48,0,0,1-7.76,4.2c1.32-8.25,7.62-50.38,9.15-60.63A2.72,2.72,0,0,1,208.13,7.59Z" transform="translate(-5.84 -1.88)"/><ellipse class="cls-6" cx="137.67" cy="29.9" rx="3.97" ry="2.32" transform="translate(21.35 115.44) rotate(-50.61)"/><ellipse class="cls-6" cx="211.62" cy="90.1" rx="3.97" ry="2.32" transform="translate(1.85 194.59) rotate(-50.61)"/><path class="cls-8" d="M10.68,110.22a.31.31,0,0,1-.22-.09A14.32,14.32,0,0,1,6.62,94.92a.32.32,0,0,1,.43-.18.33.33,0,0,1,.18.43,13.66,13.66,0,0,0,3.68,14.47.34.34,0,0,1,0,.47A.36.36,0,0,1,10.68,110.22Z" transform="translate(-5.84 -1.88)"/></g></g></g></g></svg>