<svg width="440" height="29" viewBox="0 0 440 29" fill="none" xmlns="http://www.w3.org/2000/svg">
<path d="M440 0H0V29H440V0Z" fill="white"/>
<path d="M440 0H0V1H440V0Z" fill="#E74C3C"/>
<path d="M440 1H0V29H440V1Z" fill="#C80000" fill-opacity="0.15"/>
<path d="M12.5303 9.53027C12.8232 9.23743 12.8232 8.76257 12.5303 8.46973C12.2373 8.17676 11.7627 8.17676 11.4697 8.46973L7.46973 12.4697C7.25537 12.6842 7.19092 13.0067 7.30713 13.287C7.42334 13.5673 7.69678 13.75 8 13.75H20C20.4141 13.75 20.75 13.4142 20.75 13C20.75 12.5858 20.4141 12.25 20 12.25H9.81055L12.5303 9.53027Z" fill="#C80000"/>
<path d="M20 16.25H8C7.58594 16.25 7.25 16.5858 7.25 17C7.25 17.4142 7.58594 17.75 8 17.75H18.1895L15.4697 20.4697C15.1768 20.7626 15.1768 21.2374 15.4697 21.5303C15.7627 21.8232 16.2373 21.8232 16.5303 21.5303L20.5303 17.5303C20.7446 17.3158 20.8091 16.9933 20.6929 16.713C20.5767 16.4327 20.3032 16.25 20 16.25Z" fill="#C80000"/>
<path d="M306 5.5H248C246.619 5.5 245.5 6.61929 245.5 8V22C245.5 23.3807 246.619 24.5 248 24.5H306C307.381 24.5 308.5 23.3807 308.5 22V8C308.5 6.61929 307.381 5.5 306 5.5Z" fill="white" stroke="#D1D1D1"/>
<path d="M261.179 13.012H262.319C262.255 12.556 262.119 12.156 261.911 11.812C261.703 11.46 261.443 11.168 261.131 10.936C260.819 10.704 260.463 10.528 260.063 10.408C259.663 10.288 259.239 10.228 258.791 10.228C258.135 10.228 257.551 10.348 257.039 10.588C256.535 10.82 256.111 11.14 255.767 11.548C255.431 11.956 255.175 12.436 254.999 12.988C254.823 13.532 254.735 14.116 254.735 14.74C254.735 15.364 254.815 15.948 254.975 16.492C255.143 17.036 255.391 17.508 255.719 17.908C256.047 18.308 256.459 18.624 256.955 18.856C257.451 19.08 258.031 19.192 258.695 19.192C259.791 19.192 260.655 18.892 261.287 18.292C261.919 17.692 262.291 16.852 262.403 15.772H261.263C261.239 16.124 261.167 16.452 261.047 16.756C260.927 17.06 260.759 17.324 260.543 17.548C260.335 17.764 260.083 17.936 259.787 18.064C259.499 18.184 259.167 18.244 258.791 18.244C258.279 18.244 257.839 18.148 257.471 17.956C257.103 17.764 256.799 17.508 256.559 17.188C256.327 16.86 256.155 16.48 256.043 16.048C255.931 15.608 255.875 15.144 255.875 14.656C255.875 14.208 255.931 13.776 256.043 13.36C256.155 12.944 256.327 12.576 256.559 12.256C256.799 11.928 257.099 11.668 257.459 11.476C257.827 11.284 258.267 11.188 258.779 11.188C259.379 11.188 259.895 11.34 260.327 11.644C260.767 11.948 261.051 12.404 261.179 13.012Z" fill="black"/>
<path d="M264.391 15.904C264.391 15.528 264.439 15.196 264.535 14.908C264.639 14.612 264.779 14.364 264.955 14.164C265.131 13.964 265.335 13.812 265.567 13.708C265.807 13.604 266.059 13.552 266.323 13.552C266.587 13.552 266.835 13.604 267.067 13.708C267.307 13.812 267.515 13.964 267.691 14.164C267.867 14.364 268.003 14.612 268.099 14.908C268.203 15.196 268.255 15.528 268.255 15.904C268.255 16.28 268.203 16.616 268.099 16.912C268.003 17.2 267.867 17.444 267.691 17.644C267.515 17.836 267.307 17.984 267.067 18.088C266.835 18.192 266.587 18.244 266.323 18.244C266.059 18.244 265.807 18.192 265.567 18.088C265.335 17.984 265.131 17.836 264.955 17.644C264.779 17.444 264.639 17.2 264.535 16.912C264.439 16.616 264.391 16.28 264.391 15.904ZM263.311 15.904C263.311 16.36 263.375 16.784 263.503 17.176C263.631 17.568 263.823 17.912 264.079 18.208C264.335 18.496 264.651 18.724 265.027 18.892C265.403 19.052 265.835 19.132 266.323 19.132C266.819 19.132 267.251 19.052 267.619 18.892C267.995 18.724 268.311 18.496 268.567 18.208C268.823 17.912 269.015 17.568 269.143 17.176C269.271 16.784 269.335 16.36 269.335 15.904C269.335 15.448 269.271 15.024 269.143 14.632C269.015 14.232 268.823 13.888 268.567 13.6C268.311 13.304 267.995 13.072 267.619 12.904C267.251 12.736 266.819 12.652 266.323 12.652C265.835 12.652 265.403 12.736 265.027 12.904C264.651 13.072 264.335 13.304 264.079 13.6C263.823 13.888 263.631 14.232 263.503 14.632C263.375 15.024 263.311 15.448 263.311 15.904Z" fill="black"/>
<path d="M270.538 12.796V19H271.558V15.496C271.558 15.216 271.594 14.96 271.666 14.728C271.746 14.488 271.862 14.28 272.014 14.104C272.166 13.928 272.354 13.792 272.578 13.696C272.81 13.6 273.082 13.552 273.394 13.552C273.786 13.552 274.094 13.664 274.318 13.888C274.542 14.112 274.654 14.416 274.654 14.8V19H275.674V14.92C275.674 14.584 275.638 14.28 275.566 14.008C275.502 13.728 275.386 13.488 275.218 13.288C275.05 13.088 274.83 12.932 274.558 12.82C274.286 12.708 273.946 12.652 273.538 12.652C272.618 12.652 271.946 13.028 271.522 13.78H271.498V12.796H270.538Z" fill="black"/>
<path d="M277.206 12.796V19H278.226V15.496C278.226 15.216 278.262 14.96 278.334 14.728C278.414 14.488 278.53 14.28 278.682 14.104C278.834 13.928 279.022 13.792 279.246 13.696C279.478 13.6 279.75 13.552 280.062 13.552C280.454 13.552 280.762 13.664 280.986 13.888C281.21 14.112 281.322 14.416 281.322 14.8V19H282.342V14.92C282.342 14.584 282.306 14.28 282.234 14.008C282.17 13.728 282.054 13.488 281.886 13.288C281.718 13.088 281.498 12.932 281.226 12.82C280.954 12.708 280.614 12.652 280.206 12.652C279.286 12.652 278.614 13.028 278.19 13.78H278.166V12.796H277.206Z" fill="black"/>
<path d="M288.182 15.304H284.618C284.634 15.064 284.686 14.84 284.774 14.632C284.862 14.416 284.982 14.228 285.134 14.068C285.286 13.908 285.466 13.784 285.674 13.696C285.89 13.6 286.13 13.552 286.394 13.552C286.65 13.552 286.882 13.6 287.09 13.696C287.306 13.784 287.49 13.908 287.642 14.068C287.802 14.22 287.926 14.404 288.014 14.62C288.11 14.836 288.166 15.064 288.182 15.304ZM289.166 17.032H288.158C288.07 17.44 287.886 17.744 287.606 17.944C287.334 18.144 286.982 18.244 286.55 18.244C286.214 18.244 285.922 18.188 285.674 18.076C285.426 17.964 285.222 17.816 285.062 17.632C284.902 17.44 284.786 17.224 284.714 16.984C284.642 16.736 284.61 16.476 284.618 16.204H289.262C289.278 15.828 289.242 15.432 289.154 15.016C289.074 14.6 288.922 14.216 288.698 13.864C288.482 13.512 288.19 13.224 287.822 13C287.462 12.768 287.006 12.652 286.454 12.652C286.03 12.652 285.638 12.732 285.278 12.892C284.926 13.052 284.618 13.276 284.354 13.564C284.098 13.852 283.898 14.192 283.754 14.584C283.61 14.976 283.538 15.408 283.538 15.88C283.554 16.352 283.622 16.788 283.742 17.188C283.87 17.588 284.058 17.932 284.306 18.22C284.554 18.508 284.858 18.732 285.218 18.892C285.586 19.052 286.018 19.132 286.514 19.132C287.218 19.132 287.802 18.956 288.266 18.604C288.73 18.252 289.03 17.728 289.166 17.032Z" fill="black"/>
<path d="M294.531 14.788H295.587C295.547 14.42 295.451 14.104 295.299 13.84C295.147 13.568 294.951 13.344 294.711 13.168C294.479 12.992 294.207 12.864 293.895 12.784C293.591 12.696 293.263 12.652 292.911 12.652C292.423 12.652 291.995 12.74 291.627 12.916C291.259 13.084 290.951 13.32 290.703 13.624C290.463 13.92 290.283 14.272 290.163 14.68C290.043 15.08 289.983 15.512 289.983 15.976C289.983 16.44 290.043 16.868 290.163 17.26C290.291 17.644 290.475 17.976 290.715 18.256C290.963 18.536 291.267 18.752 291.627 18.904C291.995 19.056 292.415 19.132 292.887 19.132C293.679 19.132 294.303 18.924 294.759 18.508C295.223 18.092 295.511 17.5 295.623 16.732H294.579C294.515 17.212 294.339 17.584 294.051 17.848C293.771 18.112 293.379 18.244 292.875 18.244C292.555 18.244 292.279 18.18 292.047 18.052C291.815 17.924 291.627 17.756 291.483 17.548C291.339 17.332 291.231 17.088 291.159 16.816C291.095 16.544 291.063 16.264 291.063 15.976C291.063 15.664 291.095 15.364 291.159 15.076C291.223 14.78 291.327 14.52 291.471 14.296C291.623 14.072 291.823 13.892 292.071 13.756C292.319 13.62 292.627 13.552 292.995 13.552C293.427 13.552 293.771 13.66 294.027 13.876C294.283 14.092 294.451 14.396 294.531 14.788Z" fill="black"/>
<path d="M298.18 12.796V10.936H297.16V12.796H296.104V13.696H297.16V17.644C297.16 17.932 297.188 18.164 297.244 18.34C297.3 18.516 297.384 18.652 297.496 18.748C297.616 18.844 297.768 18.912 297.952 18.952C298.144 18.984 298.372 19 298.636 19H299.416V18.1H298.948C298.788 18.1 298.656 18.096 298.552 18.088C298.456 18.072 298.38 18.044 298.324 18.004C298.268 17.964 298.228 17.908 298.204 17.836C298.188 17.764 298.18 17.668 298.18 17.548V13.696H299.416V12.796H298.18Z" fill="black"/>
<path d="M30.076 18.0399V11.3919H31.996C32.524 11.3919 32.968 11.4679 33.328 11.6199C33.688 11.7639 33.98 11.9799 34.204 12.2679C34.436 12.5479 34.6 12.8919 34.696 13.2999C34.8 13.6999 34.852 14.1559 34.852 14.6679C34.852 15.1959 34.796 15.6479 34.684 16.0239C34.58 16.3919 34.444 16.6999 34.276 16.9479C34.108 17.1959 33.916 17.3919 33.7 17.5359C33.492 17.6799 33.28 17.7919 33.064 17.8719C32.848 17.9439 32.644 17.9919 32.452 18.0159C32.26 18.0319 32.1 18.0399 31.972 18.0399H30.076ZM28.936 10.4319V18.9999H31.876C32.588 18.9999 33.204 18.8999 33.724 18.6999C34.244 18.4999 34.672 18.2119 35.008 17.8359C35.344 17.4519 35.592 16.9839 35.752 16.4319C35.912 15.8719 35.992 15.2319 35.992 14.5119C35.992 13.1359 35.636 12.1119 34.924 11.4399C34.212 10.7679 33.196 10.4319 31.876 10.4319H28.936Z" fill="black"/>
<path d="M38.2973 11.6799V10.4319H37.2773V11.6799H38.2973ZM37.2773 12.7959V18.9999H38.2973V12.7959H37.2773Z" fill="black"/>
<path d="M40.5014 17.0439H39.4814C39.4974 17.4279 39.5774 17.7559 39.7214 18.0279C39.8654 18.2919 40.0574 18.5079 40.2974 18.6759C40.5374 18.8359 40.8134 18.9519 41.1254 19.0239C41.4374 19.0959 41.7654 19.1319 42.1094 19.1319C42.4214 19.1319 42.7334 19.0999 43.0454 19.0359C43.3654 18.9799 43.6494 18.8759 43.8974 18.7239C44.1534 18.5719 44.3574 18.3719 44.5094 18.1239C44.6694 17.8759 44.7494 17.5639 44.7494 17.1879C44.7494 16.8919 44.6894 16.6439 44.5694 16.4439C44.4574 16.2439 44.3054 16.0799 44.1134 15.9519C43.9294 15.8159 43.7134 15.7079 43.4654 15.6279C43.2254 15.5479 42.9774 15.4799 42.7214 15.4239C42.4814 15.3679 42.2414 15.3159 42.0014 15.2679C41.7614 15.2119 41.5454 15.1479 41.3534 15.0759C41.1614 14.9959 41.0014 14.8999 40.8734 14.7879C40.7534 14.6679 40.6934 14.5199 40.6934 14.3439C40.6934 14.1839 40.7334 14.0559 40.8134 13.9599C40.8934 13.8559 40.9974 13.7759 41.1254 13.7199C41.2534 13.6559 41.3934 13.6119 41.5454 13.5879C41.7054 13.5639 41.8614 13.5519 42.0134 13.5519C42.1814 13.5519 42.3454 13.5719 42.5054 13.6119C42.6734 13.6439 42.8254 13.6999 42.9614 13.7799C43.0974 13.8599 43.2094 13.9679 43.2974 14.1039C43.3854 14.2319 43.4374 14.3959 43.4534 14.5959H44.4734C44.4494 14.2199 44.3694 13.9079 44.2334 13.6599C44.0974 13.4039 43.9134 13.2039 43.6814 13.0599C43.4574 12.9079 43.1974 12.8039 42.9014 12.7479C42.6054 12.6839 42.2814 12.6519 41.9294 12.6519C41.6574 12.6519 41.3814 12.6879 41.1014 12.7599C40.8294 12.8239 40.5814 12.9279 40.3574 13.0719C40.1414 13.2079 39.9614 13.3879 39.8174 13.6119C39.6814 13.8359 39.6134 14.1039 39.6134 14.4159C39.6134 14.8159 39.7134 15.1279 39.9134 15.3519C40.1134 15.5759 40.3614 15.7519 40.6574 15.8799C40.9614 15.9999 41.2894 16.0959 41.6414 16.1679C41.9934 16.2319 42.3174 16.3079 42.6134 16.3959C42.9174 16.4759 43.1694 16.5839 43.3694 16.7199C43.5694 16.8559 43.6694 17.0559 43.6694 17.3199C43.6694 17.5119 43.6214 17.6719 43.5254 17.7999C43.4294 17.9199 43.3054 18.0119 43.1534 18.0759C43.0094 18.1399 42.8494 18.1839 42.6734 18.2079C42.4974 18.2319 42.3294 18.2439 42.1694 18.2439C41.9614 18.2439 41.7574 18.2239 41.5574 18.1839C41.3654 18.1439 41.1894 18.0799 41.0294 17.9919C40.8774 17.8959 40.7534 17.7719 40.6574 17.6199C40.5614 17.4599 40.5094 17.2679 40.5014 17.0439Z" fill="black"/>
<path d="M50.0894 14.7879H51.1454C51.1054 14.4199 51.0094 14.1039 50.8574 13.8399C50.7054 13.5679 50.5094 13.3439 50.2694 13.1679C50.0374 12.9919 49.7654 12.8639 49.4534 12.7839C49.1494 12.6959 48.8214 12.6519 48.4694 12.6519C47.9814 12.6519 47.5534 12.7399 47.1854 12.9159C46.8174 13.0839 46.5094 13.3199 46.2614 13.6239C46.0214 13.9199 45.8414 14.2719 45.7214 14.6799C45.6014 15.0799 45.5414 15.5119 45.5414 15.9759C45.5414 16.4399 45.6014 16.8679 45.7214 17.2599C45.8494 17.6439 46.0334 17.9759 46.2734 18.2559C46.5214 18.5359 46.8254 18.7519 47.1854 18.9039C47.5534 19.0559 47.9734 19.1319 48.4454 19.1319C49.2374 19.1319 49.8614 18.9239 50.3174 18.5079C50.7814 18.0919 51.0694 17.4999 51.1814 16.7319H50.1374C50.0734 17.2119 49.8974 17.5839 49.6094 17.8479C49.3294 18.1119 48.9374 18.2439 48.4334 18.2439C48.1134 18.2439 47.8374 18.1799 47.6054 18.0519C47.3734 17.9239 47.1854 17.7559 47.0414 17.5479C46.8974 17.3319 46.7894 17.0879 46.7174 16.8159C46.6534 16.5439 46.6214 16.2639 46.6214 15.9759C46.6214 15.6639 46.6534 15.3639 46.7174 15.0759C46.7814 14.7799 46.8854 14.5199 47.0294 14.2959C47.1814 14.0719 47.3814 13.8919 47.6294 13.7559C47.8774 13.6199 48.1854 13.5519 48.5534 13.5519C48.9854 13.5519 49.3294 13.6599 49.5854 13.8759C49.8414 14.0919 50.0094 14.3959 50.0894 14.7879Z" fill="black"/>
<path d="M53.0667 15.9039C53.0667 15.5279 53.1147 15.1959 53.2107 14.9079C53.3147 14.6119 53.4547 14.3639 53.6307 14.1639C53.8067 13.9639 54.0107 13.8119 54.2427 13.7079C54.4827 13.6039 54.7347 13.5519 54.9987 13.5519C55.2627 13.5519 55.5107 13.6039 55.7427 13.7079C55.9827 13.8119 56.1907 13.9639 56.3667 14.1639C56.5427 14.3639 56.6787 14.6119 56.7747 14.9079C56.8787 15.1959 56.9307 15.5279 56.9307 15.9039C56.9307 16.2799 56.8787 16.6159 56.7747 16.9119C56.6787 17.1999 56.5427 17.4439 56.3667 17.6439C56.1907 17.8359 55.9827 17.9839 55.7427 18.0879C55.5107 18.1919 55.2627 18.2439 54.9987 18.2439C54.7347 18.2439 54.4827 18.1919 54.2427 18.0879C54.0107 17.9839 53.8067 17.8359 53.6307 17.6439C53.4547 17.4439 53.3147 17.1999 53.2107 16.9119C53.1147 16.6159 53.0667 16.2799 53.0667 15.9039ZM51.9867 15.9039C51.9867 16.3599 52.0507 16.7839 52.1787 17.1759C52.3067 17.5679 52.4987 17.9119 52.7547 18.2079C53.0107 18.4959 53.3267 18.7239 53.7027 18.8919C54.0787 19.0519 54.5107 19.1319 54.9987 19.1319C55.4947 19.1319 55.9267 19.0519 56.2947 18.8919C56.6707 18.7239 56.9867 18.4959 57.2427 18.2079C57.4987 17.9119 57.6907 17.5679 57.8187 17.1759C57.9467 16.7839 58.0107 16.3599 58.0107 15.9039C58.0107 15.4479 57.9467 15.0239 57.8187 14.6319C57.6907 14.2319 57.4987 13.8879 57.2427 13.5999C56.9867 13.3039 56.6707 13.0719 56.2947 12.9039C55.9267 12.7359 55.4947 12.6519 54.9987 12.6519C54.5107 12.6519 54.0787 12.7359 53.7027 12.9039C53.3267 13.0719 53.0107 13.3039 52.7547 13.5999C52.4987 13.8879 52.3067 14.2319 52.1787 14.6319C52.0507 15.0239 51.9867 15.4479 51.9867 15.9039Z" fill="black"/>
<path d="M59.2133 12.7959V18.9999H60.2333V15.4959C60.2333 15.2159 60.2693 14.9599 60.3413 14.7279C60.4213 14.4879 60.5373 14.2799 60.6893 14.1039C60.8413 13.9279 61.0293 13.7919 61.2533 13.6959C61.4853 13.5999 61.7573 13.5519 62.0693 13.5519C62.4613 13.5519 62.7693 13.6639 62.9933 13.8879C63.2173 14.1119 63.3293 14.4159 63.3293 14.7999V18.9999H64.3493V14.9199C64.3493 14.5839 64.3133 14.2799 64.2413 14.0079C64.1773 13.7279 64.0613 13.4879 63.8933 13.2879C63.7253 13.0879 63.5053 12.9319 63.2333 12.8199C62.9613 12.7079 62.6213 12.6519 62.2133 12.6519C61.2933 12.6519 60.6213 13.0279 60.1973 13.7799H60.1733V12.7959H59.2133Z" fill="black"/>
<path d="M65.8813 12.7959V18.9999H66.9013V15.4959C66.9013 15.2159 66.9373 14.9599 67.0093 14.7279C67.0893 14.4879 67.2053 14.2799 67.3573 14.1039C67.5093 13.9279 67.6973 13.7919 67.9213 13.6959C68.1533 13.5999 68.4253 13.5519 68.7373 13.5519C69.1293 13.5519 69.4373 13.6639 69.6613 13.8879C69.8853 14.1119 69.9973 14.4159 69.9973 14.7999V18.9999H71.0173V14.9199C71.0173 14.5839 70.9813 14.2799 70.9093 14.0079C70.8453 13.7279 70.7293 13.4879 70.5613 13.2879C70.3933 13.0879 70.1733 12.9319 69.9013 12.8199C69.6293 12.7079 69.2893 12.6519 68.8813 12.6519C67.9613 12.6519 67.2893 13.0279 66.8653 13.7799H66.8413V12.7959H65.8813Z" fill="black"/>
<path d="M76.8573 15.3039H73.2933C73.3093 15.0639 73.3613 14.8399 73.4493 14.6319C73.5373 14.4159 73.6573 14.2279 73.8093 14.0679C73.9613 13.9079 74.1413 13.7839 74.3493 13.6959C74.5653 13.5999 74.8053 13.5519 75.0693 13.5519C75.3253 13.5519 75.5573 13.5999 75.7653 13.6959C75.9813 13.7839 76.1653 13.9079 76.3173 14.0679C76.4773 14.2199 76.6013 14.4039 76.6893 14.6199C76.7853 14.8359 76.8413 15.0639 76.8573 15.3039ZM77.8413 17.0319H76.8333C76.7453 17.4399 76.5613 17.7439 76.2813 17.9439C76.0093 18.1439 75.6573 18.2439 75.2253 18.2439C74.8893 18.2439 74.5973 18.1879 74.3493 18.0759C74.1013 17.9639 73.8973 17.8159 73.7373 17.6319C73.5773 17.4399 73.4613 17.2239 73.3893 16.9839C73.3173 16.7359 73.2853 16.4759 73.2933 16.2039H77.9373C77.9533 15.8279 77.9173 15.4319 77.8293 15.0159C77.7493 14.5999 77.5973 14.2159 77.3733 13.8639C77.1573 13.5119 76.8653 13.2239 76.4973 12.9999C76.1373 12.7679 75.6813 12.6519 75.1293 12.6519C74.7053 12.6519 74.3133 12.7319 73.9533 12.8919C73.6013 13.0519 73.2933 13.2759 73.0293 13.5639C72.7733 13.8519 72.5733 14.1919 72.4293 14.5839C72.2853 14.9759 72.2133 15.4079 72.2133 15.8799C72.2293 16.3519 72.2973 16.7879 72.4173 17.1879C72.5453 17.5879 72.7333 17.9319 72.9813 18.2199C73.2293 18.5079 73.5333 18.7319 73.8933 18.8919C74.2613 19.0519 74.6933 19.1319 75.1893 19.1319C75.8933 19.1319 76.4773 18.9559 76.9413 18.6039C77.4053 18.2519 77.7053 17.7279 77.8413 17.0319Z" fill="black"/>
<path d="M83.2066 14.7879H84.2626C84.2226 14.4199 84.1266 14.1039 83.9746 13.8399C83.8226 13.5679 83.6266 13.3439 83.3866 13.1679C83.1546 12.9919 82.8826 12.8639 82.5706 12.7839C82.2666 12.6959 81.9386 12.6519 81.5866 12.6519C81.0986 12.6519 80.6706 12.7399 80.3026 12.9159C79.9346 13.0839 79.6266 13.3199 79.3786 13.6239C79.1386 13.9199 78.9586 14.2719 78.8386 14.6799C78.7186 15.0799 78.6586 15.5119 78.6586 15.9759C78.6586 16.4399 78.7186 16.8679 78.8386 17.2599C78.9666 17.6439 79.1506 17.9759 79.3906 18.2559C79.6386 18.5359 79.9426 18.7519 80.3026 18.9039C80.6706 19.0559 81.0906 19.1319 81.5626 19.1319C82.3546 19.1319 82.9786 18.9239 83.4346 18.5079C83.8986 18.0919 84.1866 17.4999 84.2986 16.7319H83.2546C83.1906 17.2119 83.0146 17.5839 82.7266 17.8479C82.4466 18.1119 82.0546 18.2439 81.5506 18.2439C81.2306 18.2439 80.9546 18.1799 80.7226 18.0519C80.4906 17.9239 80.3026 17.7559 80.1586 17.5479C80.0146 17.3319 79.9066 17.0879 79.8346 16.8159C79.7706 16.5439 79.7386 16.2639 79.7386 15.9759C79.7386 15.6639 79.7706 15.3639 79.8346 15.0759C79.8986 14.7799 80.0026 14.5199 80.1466 14.2959C80.2986 14.0719 80.4986 13.8919 80.7466 13.7559C80.9946 13.6199 81.3026 13.5519 81.6706 13.5519C82.1026 13.5519 82.4466 13.6599 82.7026 13.8759C82.9586 14.0919 83.1266 14.3959 83.2066 14.7879Z" fill="black"/>
<path d="M86.8559 12.7959V10.9359H85.8359V12.7959H84.7799V13.6959H85.8359V17.6439C85.8359 17.9319 85.8639 18.1639 85.9199 18.3399C85.9759 18.5159 86.0599 18.6519 86.1719 18.7479C86.2919 18.8439 86.4439 18.9119 86.6279 18.9519C86.8199 18.9839 87.0479 18.9999 87.3119 18.9999H88.0919V18.0999H87.6239C87.4639 18.0999 87.3319 18.0959 87.2279 18.0879C87.1319 18.0719 87.0559 18.0439 86.9999 18.0039C86.9439 17.9639 86.9039 17.9079 86.8799 17.8359C86.8639 17.7639 86.8559 17.6679 86.8559 17.5479V13.6959H88.0919V12.7959H86.8559Z" fill="black"/>
<path d="M93.5331 15.3039H89.9691C89.9851 15.0639 90.0371 14.8399 90.1251 14.6319C90.2131 14.4159 90.3331 14.2279 90.4851 14.0679C90.6371 13.9079 90.8171 13.7839 91.0251 13.6959C91.2411 13.5999 91.4811 13.5519 91.7451 13.5519C92.0011 13.5519 92.2331 13.5999 92.4411 13.6959C92.6571 13.7839 92.8411 13.9079 92.9931 14.0679C93.1531 14.2199 93.2771 14.4039 93.3651 14.6199C93.4611 14.8359 93.5171 15.0639 93.5331 15.3039ZM94.5171 17.0319H93.5091C93.4211 17.4399 93.2371 17.7439 92.9571 17.9439C92.6851 18.1439 92.3331 18.2439 91.9011 18.2439C91.5651 18.2439 91.2731 18.1879 91.0251 18.0759C90.7771 17.9639 90.5731 17.8159 90.4131 17.6319C90.2531 17.4399 90.1371 17.2239 90.0651 16.9839C89.9931 16.7359 89.9611 16.4759 89.9691 16.2039H94.6131C94.6291 15.8279 94.5931 15.4319 94.5051 15.0159C94.4251 14.5999 94.2731 14.2159 94.0491 13.8639C93.8331 13.5119 93.5411 13.2239 93.1731 12.9999C92.8131 12.7679 92.3571 12.6519 91.8051 12.6519C91.3811 12.6519 90.9891 12.7319 90.6291 12.8919C90.2771 13.0519 89.9691 13.2759 89.7051 13.5639C89.4491 13.8519 89.2491 14.1919 89.1051 14.5839C88.9611 14.9759 88.8891 15.4079 88.8891 15.8799C88.9051 16.3519 88.9731 16.7879 89.0931 17.1879C89.2211 17.5879 89.4091 17.9319 89.6571 18.2199C89.9051 18.5079 90.2091 18.7319 90.5691 18.8919C90.9371 19.0519 91.3691 19.1319 91.8651 19.1319C92.5691 19.1319 93.1531 18.9559 93.6171 18.6039C94.0811 18.2519 94.3811 17.7279 94.5171 17.0319Z" fill="black"/>
<path d="M96.4144 15.9519C96.4144 15.6479 96.4464 15.3519 96.5104 15.0639C96.5744 14.7759 96.6784 14.5199 96.8224 14.2959C96.9664 14.0719 97.1584 13.8919 97.3984 13.7559C97.6384 13.6199 97.9304 13.5519 98.2744 13.5519C98.6264 13.5519 98.9264 13.6199 99.1744 13.7559C99.4224 13.8839 99.6224 14.0559 99.7744 14.2719C99.9344 14.4879 100.05 14.7399 100.122 15.0279C100.194 15.3079 100.23 15.5999 100.23 15.9039C100.23 16.1919 100.194 16.4759 100.122 16.7559C100.058 17.0359 99.9504 17.2879 99.7984 17.5119C99.6464 17.7279 99.4504 17.9039 99.2104 18.0399C98.9704 18.1759 98.6784 18.2439 98.3344 18.2439C98.0064 18.2439 97.7184 18.1799 97.4704 18.0519C97.2304 17.9239 97.0304 17.7519 96.8704 17.5359C96.7184 17.3199 96.6024 17.0759 96.5224 16.8039C96.4504 16.5239 96.4144 16.2399 96.4144 15.9519ZM101.214 18.9999V10.4319H100.194V13.6239H100.17C100.058 13.4399 99.9184 13.2879 99.7504 13.1679C99.5904 13.0399 99.4184 12.9399 99.2344 12.8679C99.0504 12.7879 98.8664 12.7319 98.6824 12.6999C98.4984 12.6679 98.3264 12.6519 98.1664 12.6519C97.6944 12.6519 97.2784 12.7399 96.9184 12.9159C96.5664 13.0839 96.2704 13.3159 96.0304 13.6119C95.7984 13.8999 95.6224 14.2399 95.5024 14.6319C95.3904 15.0239 95.3344 15.4399 95.3344 15.8799C95.3344 16.3199 95.3944 16.7359 95.5144 17.1279C95.6344 17.5199 95.8104 17.8639 96.0424 18.1599C96.2824 18.4559 96.5784 18.6919 96.9304 18.8679C97.2904 19.0439 97.7104 19.1319 98.1904 19.1319C98.6224 19.1319 99.0184 19.0559 99.3784 18.9039C99.7384 18.7519 100.002 18.5039 100.17 18.1599H100.194V18.9999H101.214Z" fill="black"/>
<path d="M106.544 13.6959V18.9999H107.564V13.6959H108.764V12.7959H107.564V11.9319C107.564 11.6599 107.632 11.4759 107.768 11.3799C107.904 11.2839 108.096 11.2359 108.344 11.2359C108.432 11.2359 108.528 11.2439 108.632 11.2599C108.736 11.2679 108.832 11.2879 108.92 11.3199V10.4319C108.824 10.3999 108.712 10.3759 108.584 10.3599C108.464 10.3439 108.356 10.3359 108.26 10.3359C107.7 10.3359 107.272 10.4679 106.976 10.7319C106.688 10.9879 106.544 11.3679 106.544 11.8719V12.7959H105.5V13.6959H106.544Z" fill="black"/>
<path d="M109.638 12.7959V18.9999H110.658V16.2399C110.658 15.8399 110.698 15.4879 110.778 15.1839C110.858 14.8719 110.986 14.6079 111.162 14.3919C111.338 14.1759 111.57 14.0119 111.858 13.8999C112.146 13.7879 112.494 13.7319 112.902 13.7319V12.6519C112.35 12.6359 111.894 12.7479 111.534 12.9879C111.174 13.2279 110.87 13.5999 110.622 14.1039H110.598V12.7959H109.638Z" fill="black"/>
<path d="M114.203 15.9039C114.203 15.5279 114.251 15.1959 114.347 14.9079C114.451 14.6119 114.591 14.3639 114.767 14.1639C114.943 13.9639 115.147 13.8119 115.379 13.7079C115.619 13.6039 115.871 13.5519 116.135 13.5519C116.399 13.5519 116.647 13.6039 116.879 13.7079C117.119 13.8119 117.327 13.9639 117.503 14.1639C117.679 14.3639 117.815 14.6119 117.911 14.9079C118.015 15.1959 118.067 15.5279 118.067 15.9039C118.067 16.2799 118.015 16.6159 117.911 16.9119C117.815 17.1999 117.679 17.4439 117.503 17.6439C117.327 17.8359 117.119 17.9839 116.879 18.0879C116.647 18.1919 116.399 18.2439 116.135 18.2439C115.871 18.2439 115.619 18.1919 115.379 18.0879C115.147 17.9839 114.943 17.8359 114.767 17.6439C114.591 17.4439 114.451 17.1999 114.347 16.9119C114.251 16.6159 114.203 16.2799 114.203 15.9039ZM113.123 15.9039C113.123 16.3599 113.187 16.7839 113.315 17.1759C113.443 17.5679 113.635 17.9119 113.891 18.2079C114.147 18.4959 114.463 18.7239 114.839 18.8919C115.215 19.0519 115.647 19.1319 116.135 19.1319C116.631 19.1319 117.063 19.0519 117.431 18.8919C117.807 18.7239 118.123 18.4959 118.379 18.2079C118.635 17.9119 118.827 17.5679 118.955 17.1759C119.083 16.7839 119.147 16.3599 119.147 15.9039C119.147 15.4479 119.083 15.0239 118.955 14.6319C118.827 14.2319 118.635 13.8879 118.379 13.5999C118.123 13.3039 117.807 13.0719 117.431 12.9039C117.063 12.7359 116.631 12.6519 116.135 12.6519C115.647 12.6519 115.215 12.7359 114.839 12.9039C114.463 13.0719 114.147 13.3039 113.891 13.5999C113.635 13.8879 113.443 14.2319 113.315 14.6319C113.187 15.0239 113.123 15.4479 113.123 15.9039Z" fill="black"/>
<path d="M120.35 12.7959V18.9999H121.37V15.1359C121.37 15.0159 121.398 14.8679 121.454 14.6919C121.518 14.5079 121.614 14.3319 121.742 14.1639C121.878 13.9959 122.05 13.8519 122.258 13.7319C122.474 13.6119 122.73 13.5519 123.026 13.5519C123.258 13.5519 123.446 13.5879 123.59 13.6599C123.742 13.7239 123.862 13.8199 123.95 13.9479C124.038 14.0679 124.098 14.2119 124.13 14.3799C124.17 14.5479 124.19 14.7319 124.19 14.9319V18.9999H125.21V15.1359C125.21 14.6559 125.354 14.2719 125.642 13.9839C125.93 13.6959 126.326 13.5519 126.83 13.5519C127.078 13.5519 127.278 13.5879 127.43 13.6599C127.59 13.7319 127.714 13.8319 127.802 13.9599C127.89 14.0799 127.95 14.2239 127.982 14.3919C128.014 14.5599 128.03 14.7399 128.03 14.9319V18.9999H129.05V14.4519C129.05 14.1319 128.998 13.8599 128.894 13.6359C128.798 13.4039 128.658 13.2159 128.474 13.0719C128.298 12.9279 128.082 12.8239 127.826 12.7599C127.578 12.6879 127.298 12.6519 126.986 12.6519C126.578 12.6519 126.202 12.7439 125.858 12.9279C125.522 13.1119 125.25 13.3719 125.042 13.7079C124.914 13.3239 124.694 13.0519 124.382 12.8919C124.07 12.7319 123.722 12.6519 123.338 12.6519C122.466 12.6519 121.798 13.0039 121.334 13.7079H121.31V12.7959H120.35Z" fill="black"/>
<path d="M134.088 10.4319V18.9999H135.228V15.3399H138.012C138.292 15.3399 138.516 15.3839 138.684 15.4719C138.852 15.5519 138.988 15.6639 139.092 15.8079C139.196 15.9439 139.272 16.1079 139.32 16.2999C139.368 16.4839 139.408 16.6799 139.44 16.8879C139.48 17.0959 139.504 17.3079 139.512 17.5239C139.52 17.7399 139.528 17.9439 139.536 18.1359C139.544 18.3199 139.56 18.4879 139.584 18.6399C139.616 18.7919 139.672 18.9119 139.752 18.9999H141.024C140.904 18.8559 140.812 18.6919 140.748 18.5079C140.692 18.3159 140.648 18.1159 140.616 17.9079C140.584 17.6999 140.564 17.4879 140.556 17.2719C140.548 17.0559 140.536 16.8439 140.52 16.6359C140.496 16.4279 140.46 16.2279 140.412 16.0359C140.372 15.8439 140.304 15.6719 140.208 15.5199C140.12 15.3599 139.996 15.2239 139.836 15.1119C139.684 14.9999 139.484 14.9199 139.236 14.8719V14.8479C139.756 14.7039 140.132 14.4359 140.364 14.0439C140.604 13.6519 140.724 13.1959 140.724 12.6759C140.724 11.9799 140.492 11.4319 140.028 11.0319C139.572 10.6319 138.936 10.4319 138.12 10.4319H134.088ZM137.604 14.3799H135.228V11.3919H138.06C138.596 11.3919 138.984 11.5279 139.224 11.7999C139.464 12.0719 139.584 12.4239 139.584 12.8559C139.584 13.1679 139.528 13.4239 139.416 13.6239C139.312 13.8159 139.168 13.9719 138.984 14.0919C138.808 14.2039 138.6 14.2799 138.36 14.3199C138.12 14.3599 137.868 14.3799 137.604 14.3799Z" fill="#2E86AB"/>
<path d="M147.631 18.9759C147.455 19.0799 147.211 19.1319 146.899 19.1319C146.635 19.1319 146.423 19.0599 146.263 18.9159C146.111 18.7639 146.035 18.5199 146.035 18.1839C145.755 18.5199 145.427 18.7639 145.051 18.9159C144.683 19.0599 144.283 19.1319 143.851 19.1319C143.571 19.1319 143.303 19.0999 143.047 19.0359C142.799 18.9719 142.583 18.8719 142.399 18.7359C142.215 18.5999 142.067 18.4239 141.955 18.2079C141.851 17.9839 141.799 17.7159 141.799 17.4039C141.799 17.0519 141.859 16.7639 141.979 16.5399C142.099 16.3159 142.255 16.1359 142.447 15.9999C142.647 15.8559 142.871 15.7479 143.119 15.6759C143.375 15.6039 143.635 15.5439 143.899 15.4959C144.179 15.4399 144.443 15.3999 144.691 15.3759C144.947 15.3439 145.171 15.3039 145.363 15.2559C145.555 15.1999 145.707 15.1239 145.819 15.0279C145.931 14.9239 145.987 14.7759 145.987 14.5839C145.987 14.3599 145.943 14.1799 145.855 14.0439C145.775 13.9079 145.667 13.8039 145.531 13.7319C145.403 13.6599 145.255 13.6119 145.087 13.5879C144.927 13.5639 144.767 13.5519 144.607 13.5519C144.175 13.5519 143.815 13.6359 143.527 13.8039C143.239 13.9639 143.083 14.2719 143.059 14.7279H142.039C142.055 14.3439 142.135 14.0199 142.279 13.7559C142.423 13.4919 142.615 13.2799 142.855 13.1199C143.095 12.9519 143.367 12.8319 143.671 12.7599C143.983 12.6879 144.315 12.6519 144.667 12.6519C144.947 12.6519 145.223 12.6719 145.495 12.7119C145.775 12.7519 146.027 12.8359 146.251 12.9639C146.475 13.0839 146.655 13.2559 146.791 13.4799C146.927 13.7039 146.995 13.9959 146.995 14.3559V17.5479C146.995 17.7879 147.007 17.9639 147.031 18.0759C147.063 18.1879 147.159 18.2439 147.319 18.2439C147.407 18.2439 147.511 18.2239 147.631 18.1839V18.9759ZM145.975 15.7959C145.847 15.8919 145.679 15.9639 145.471 16.0119C145.263 16.0519 145.043 16.0879 144.811 16.1199C144.587 16.1439 144.359 16.1759 144.127 16.2159C143.895 16.2479 143.687 16.3039 143.503 16.3839C143.319 16.4639 143.167 16.5799 143.047 16.7319C142.935 16.8759 142.879 17.0759 142.879 17.3319C142.879 17.4999 142.911 17.6439 142.975 17.7639C143.047 17.8759 143.135 17.9679 143.239 18.0399C143.351 18.1119 143.479 18.1639 143.623 18.1959C143.767 18.2279 143.919 18.2439 144.079 18.2439C144.415 18.2439 144.703 18.1999 144.943 18.1119C145.183 18.0159 145.379 17.8999 145.531 17.7639C145.683 17.6199 145.795 17.4679 145.867 17.3079C145.939 17.1399 145.975 16.9839 145.975 16.8399V15.7959Z" fill="#2E86AB"/>
<path d="M148.58 12.7959V18.9999H149.601V15.4959C149.601 15.2159 149.637 14.9599 149.709 14.7279C149.789 14.4879 149.905 14.2799 150.057 14.1039C150.209 13.9279 150.396 13.7919 150.62 13.6959C150.852 13.5999 151.125 13.5519 151.437 13.5519C151.829 13.5519 152.136 13.6639 152.36 13.8879C152.584 14.1119 152.697 14.4159 152.697 14.7999V18.9999H153.716V14.9199C153.716 14.5839 153.68 14.2799 153.608 14.0079C153.544 13.7279 153.428 13.4879 153.26 13.2879C153.092 13.0879 152.873 12.9319 152.601 12.8199C152.329 12.7079 151.988 12.6519 151.58 12.6519C150.66 12.6519 149.988 13.0279 149.564 13.7799H149.54V12.7959H148.58Z" fill="#2E86AB"/>
<path d="M155.992 15.9039C155.992 15.5279 156.04 15.1959 156.136 14.9079C156.24 14.6119 156.38 14.3639 156.556 14.1639C156.732 13.9639 156.936 13.8119 157.168 13.7079C157.408 13.6039 157.66 13.5519 157.924 13.5519C158.188 13.5519 158.436 13.6039 158.668 13.7079C158.908 13.8119 159.116 13.9639 159.292 14.1639C159.468 14.3639 159.604 14.6119 159.7 14.9079C159.804 15.1959 159.856 15.5279 159.856 15.9039C159.856 16.2799 159.804 16.6159 159.7 16.9119C159.604 17.1999 159.468 17.4439 159.292 17.6439C159.116 17.8359 158.908 17.9839 158.668 18.0879C158.436 18.1919 158.188 18.2439 157.924 18.2439C157.66 18.2439 157.408 18.1919 157.168 18.0879C156.936 17.9839 156.732 17.8359 156.556 17.6439C156.38 17.4439 156.24 17.1999 156.136 16.9119C156.04 16.6159 155.992 16.2799 155.992 15.9039ZM154.912 15.9039C154.912 16.3599 154.976 16.7839 155.104 17.1759C155.232 17.5679 155.424 17.9119 155.68 18.2079C155.936 18.4959 156.252 18.7239 156.628 18.8919C157.004 19.0519 157.436 19.1319 157.924 19.1319C158.42 19.1319 158.852 19.0519 159.22 18.8919C159.596 18.7239 159.912 18.4959 160.168 18.2079C160.424 17.9119 160.616 17.5679 160.744 17.1759C160.872 16.7839 160.936 16.3599 160.936 15.9039C160.936 15.4479 160.872 15.0239 160.744 14.6319C160.616 14.2319 160.424 13.8879 160.168 13.5999C159.912 13.3039 159.596 13.0719 159.22 12.9039C158.852 12.7359 158.42 12.6519 157.924 12.6519C157.436 12.6519 157.004 12.7359 156.628 12.9039C156.252 13.0719 155.936 13.3039 155.68 13.5999C155.424 13.8879 155.232 14.2319 155.104 14.6319C154.976 15.0239 154.912 15.4479 154.912 15.9039Z" fill="#2E86AB"/>
<path d="M162.103 12.7959V18.9999H163.123V16.2399C163.123 15.8399 163.163 15.4879 163.243 15.1839C163.323 14.8719 163.451 14.6079 163.627 14.3919C163.803 14.1759 164.035 14.0119 164.323 13.8999C164.611 13.7879 164.959 13.7319 165.367 13.7319V12.6519C164.815 12.6359 164.359 12.7479 163.999 12.9879C163.639 13.2279 163.335 13.5999 163.087 14.1039H163.063V12.7959H162.103Z" fill="#2E86AB"/>
<path d="M170.232 15.3039H166.668C166.684 15.0639 166.736 14.8399 166.824 14.6319C166.912 14.4159 167.032 14.2279 167.184 14.0679C167.336 13.9079 167.516 13.7839 167.724 13.6959C167.94 13.5999 168.18 13.5519 168.444 13.5519C168.7 13.5519 168.932 13.5999 169.14 13.6959C169.356 13.7839 169.54 13.9079 169.692 14.0679C169.852 14.2199 169.976 14.4039 170.064 14.6199C170.16 14.8359 170.216 15.0639 170.232 15.3039ZM171.216 17.0319H170.208C170.12 17.4399 169.936 17.7439 169.656 17.9439C169.384 18.1439 169.032 18.2439 168.6 18.2439C168.264 18.2439 167.972 18.1879 167.724 18.0759C167.476 17.9639 167.272 17.8159 167.112 17.6319C166.952 17.4399 166.836 17.2239 166.764 16.9839C166.692 16.7359 166.66 16.4759 166.668 16.2039H171.312C171.328 15.8279 171.292 15.4319 171.204 15.0159C171.124 14.5999 170.972 14.2159 170.748 13.8639C170.532 13.5119 170.24 13.2239 169.872 12.9999C169.512 12.7679 169.056 12.6519 168.504 12.6519C168.08 12.6519 167.688 12.7319 167.328 12.8919C166.976 13.0519 166.668 13.2759 166.404 13.5639C166.148 13.8519 165.948 14.1919 165.804 14.5839C165.66 14.9759 165.588 15.4079 165.588 15.8799C165.604 16.3519 165.672 16.7879 165.792 17.1879C165.92 17.5879 166.108 17.9319 166.356 18.2199C166.604 18.5079 166.908 18.7319 167.268 18.8919C167.636 19.0519 168.068 19.1319 168.564 19.1319C169.268 19.1319 169.852 18.9559 170.316 18.6039C170.78 18.2519 171.08 17.7279 171.216 17.0319Z" fill="#2E86AB"/>
<path d="M174.038 15.7359L171.71 18.9999H172.946L174.674 16.4319L176.402 18.9999H177.71L175.31 15.6519L177.446 12.7959H176.222L174.674 14.9679L173.186 12.7959H171.878L174.038 15.7359Z" fill="#2E86AB"/>
<path d="M189.828 18.9999L192.12 10.4319H190.98L189.24 17.5599H189.216L187.32 10.4319H186.084L184.164 17.5599H184.14L182.46 10.4319H181.296L183.492 18.9999H184.68L186.66 11.7999H186.684L188.64 18.9999H189.828Z" fill="#2E86AB"/>
<path d="M196.658 15.3039H193.094C193.11 15.0639 193.162 14.8399 193.25 14.6319C193.338 14.4159 193.458 14.2279 193.61 14.0679C193.762 13.9079 193.942 13.7839 194.15 13.6959C194.366 13.5999 194.606 13.5519 194.87 13.5519C195.126 13.5519 195.358 13.5999 195.566 13.6959C195.782 13.7839 195.966 13.9079 196.118 14.0679C196.278 14.2199 196.402 14.4039 196.49 14.6199C196.586 14.8359 196.642 15.0639 196.658 15.3039ZM197.642 17.0319H196.634C196.546 17.4399 196.362 17.7439 196.082 17.9439C195.81 18.1439 195.458 18.2439 195.026 18.2439C194.69 18.2439 194.398 18.1879 194.15 18.0759C193.902 17.9639 193.698 17.8159 193.538 17.6319C193.378 17.4399 193.262 17.2239 193.19 16.9839C193.118 16.7359 193.086 16.4759 193.094 16.2039H197.738C197.754 15.8279 197.718 15.4319 197.63 15.0159C197.55 14.5999 197.398 14.2159 197.174 13.8639C196.958 13.5119 196.666 13.2239 196.298 12.9999C195.938 12.7679 195.482 12.6519 194.93 12.6519C194.506 12.6519 194.114 12.7319 193.754 12.8919C193.402 13.0519 193.094 13.2759 192.83 13.5639C192.574 13.8519 192.374 14.1919 192.23 14.5839C192.086 14.9759 192.014 15.4079 192.014 15.8799C192.03 16.3519 192.098 16.7879 192.218 17.1879C192.346 17.5879 192.534 17.9319 192.782 18.2199C193.03 18.5079 193.334 18.7319 193.694 18.8919C194.062 19.0519 194.494 19.1319 194.99 19.1319C195.694 19.1319 196.278 18.9559 196.742 18.6039C197.206 18.2519 197.506 17.7279 197.642 17.0319Z" fill="#2E86AB"/>
<path d="M198.831 10.4319V18.9999H199.851V18.1719H199.875C199.987 18.3559 200.123 18.5119 200.283 18.6399C200.451 18.7599 200.627 18.8559 200.811 18.9279C200.995 18.9999 201.179 19.0519 201.363 19.0839C201.555 19.1159 201.727 19.1319 201.879 19.1319C202.351 19.1319 202.763 19.0479 203.115 18.8799C203.475 18.7119 203.771 18.4839 204.003 18.1959C204.243 17.8999 204.419 17.5559 204.531 17.1639C204.651 16.7719 204.711 16.3559 204.711 15.9159C204.711 15.4759 204.651 15.0599 204.531 14.6679C204.411 14.2759 204.231 13.9319 203.991 13.6359C203.759 13.3319 203.463 13.0919 203.103 12.9159C202.751 12.7399 202.335 12.6519 201.855 12.6519C201.423 12.6519 201.027 12.7319 200.667 12.8919C200.307 13.0439 200.043 13.2919 199.875 13.6359H199.851V10.4319H198.831ZM203.631 15.8439C203.631 16.1479 203.599 16.4439 203.535 16.7319C203.471 17.0199 203.367 17.2759 203.223 17.4999C203.079 17.7239 202.887 17.9039 202.647 18.0399C202.415 18.1759 202.123 18.2439 201.771 18.2439C201.419 18.2439 201.119 18.1799 200.871 18.0519C200.623 17.9159 200.419 17.7399 200.259 17.5239C200.107 17.3079 199.995 17.0599 199.923 16.7799C199.851 16.4919 199.815 16.1959 199.815 15.8919C199.815 15.6039 199.847 15.3199 199.911 15.0399C199.983 14.7599 200.095 14.5119 200.247 14.2959C200.399 14.0719 200.595 13.8919 200.835 13.7559C201.075 13.6199 201.367 13.5519 201.711 13.5519C202.039 13.5519 202.323 13.6159 202.563 13.7439C202.811 13.8719 203.011 14.0439 203.163 14.2599C203.323 14.4759 203.439 14.7239 203.511 15.0039C203.591 15.2759 203.631 15.5559 203.631 15.8439Z" fill="#2E86AB"/>
<path d="M207.325 12.7959V10.9359H206.305V12.7959H205.249V13.6959H206.305V17.6439C206.305 17.9319 206.333 18.1639 206.389 18.3399C206.445 18.5159 206.529 18.6519 206.641 18.7479C206.761 18.8439 206.913 18.9119 207.097 18.9519C207.289 18.9839 207.517 18.9999 207.781 18.9999H208.561V18.0999H208.093C207.933 18.0999 207.801 18.0959 207.697 18.0879C207.601 18.0719 207.525 18.0439 207.469 18.0039C207.413 17.9639 207.373 17.9079 207.349 17.8359C207.333 17.7639 207.325 17.6679 207.325 17.5479V13.6959H208.561V12.7959H207.325Z" fill="#2E86AB"/>
<path d="M214.002 15.3039H210.438C210.454 15.0639 210.506 14.8399 210.594 14.6319C210.682 14.4159 210.802 14.2279 210.954 14.0679C211.106 13.9079 211.286 13.7839 211.494 13.6959C211.71 13.5999 211.95 13.5519 212.214 13.5519C212.47 13.5519 212.702 13.5999 212.91 13.6959C213.126 13.7839 213.31 13.9079 213.462 14.0679C213.622 14.2199 213.746 14.4039 213.834 14.6199C213.93 14.8359 213.986 15.0639 214.002 15.3039ZM214.986 17.0319H213.978C213.89 17.4399 213.706 17.7439 213.426 17.9439C213.154 18.1439 212.802 18.2439 212.37 18.2439C212.034 18.2439 211.742 18.1879 211.494 18.0759C211.246 17.9639 211.042 17.8159 210.882 17.6319C210.722 17.4399 210.606 17.2239 210.534 16.9839C210.462 16.7359 210.43 16.4759 210.438 16.2039H215.082C215.098 15.8279 215.062 15.4319 214.974 15.0159C214.894 14.5999 214.742 14.2159 214.518 13.8639C214.302 13.5119 214.01 13.2239 213.642 12.9999C213.282 12.7679 212.826 12.6519 212.274 12.6519C211.85 12.6519 211.458 12.7319 211.098 12.8919C210.746 13.0519 210.438 13.2759 210.174 13.5639C209.918 13.8519 209.718 14.1919 209.574 14.5839C209.43 14.9759 209.358 15.4079 209.358 15.8799C209.374 16.3519 209.442 16.7879 209.562 17.1879C209.69 17.5879 209.878 17.9319 210.126 18.2199C210.374 18.5079 210.678 18.7319 211.038 18.8919C211.406 19.0519 211.838 19.1319 212.334 19.1319C213.038 19.1319 213.622 18.9559 214.086 18.6039C214.55 18.2519 214.85 17.7279 214.986 17.0319Z" fill="#2E86AB"/>
<path d="M216.763 17.0439H215.743C215.759 17.4279 215.839 17.7559 215.983 18.0279C216.127 18.2919 216.319 18.5079 216.559 18.6759C216.799 18.8359 217.075 18.9519 217.387 19.0239C217.699 19.0959 218.027 19.1319 218.371 19.1319C218.683 19.1319 218.995 19.0999 219.307 19.0359C219.627 18.9799 219.911 18.8759 220.159 18.7239C220.415 18.5719 220.619 18.3719 220.771 18.1239C220.931 17.8759 221.011 17.5639 221.011 17.1879C221.011 16.8919 220.951 16.6439 220.831 16.4439C220.719 16.2439 220.567 16.0799 220.375 15.9519C220.191 15.8159 219.975 15.7079 219.727 15.6279C219.487 15.5479 219.239 15.4799 218.983 15.4239C218.743 15.3679 218.503 15.3159 218.263 15.2679C218.023 15.2119 217.807 15.1479 217.615 15.0759C217.423 14.9959 217.263 14.8999 217.135 14.7879C217.015 14.6679 216.955 14.5199 216.955 14.3439C216.955 14.1839 216.995 14.0559 217.075 13.9599C217.155 13.8559 217.259 13.7759 217.387 13.7199C217.515 13.6559 217.655 13.6119 217.807 13.5879C217.967 13.5639 218.123 13.5519 218.275 13.5519C218.443 13.5519 218.607 13.5719 218.767 13.6119C218.935 13.6439 219.087 13.6999 219.223 13.7799C219.359 13.8599 219.471 13.9679 219.559 14.1039C219.647 14.2319 219.699 14.3959 219.715 14.5959H220.735C220.711 14.2199 220.631 13.9079 220.495 13.6599C220.359 13.4039 220.175 13.2039 219.943 13.0599C219.719 12.9079 219.459 12.8039 219.163 12.7479C218.867 12.6839 218.543 12.6519 218.191 12.6519C217.919 12.6519 217.643 12.6879 217.363 12.7599C217.091 12.8239 216.843 12.9279 216.619 13.0719C216.403 13.2079 216.223 13.3879 216.079 13.6119C215.943 13.8359 215.875 14.1039 215.875 14.4159C215.875 14.8159 215.975 15.1279 216.175 15.3519C216.375 15.5759 216.623 15.7519 216.919 15.8799C217.223 15.9999 217.551 16.0959 217.903 16.1679C218.255 16.2319 218.579 16.3079 218.875 16.3959C219.179 16.4759 219.431 16.5839 219.631 16.7199C219.831 16.8559 219.931 17.0559 219.931 17.3199C219.931 17.5119 219.883 17.6719 219.787 17.7999C219.691 17.9199 219.567 18.0119 219.415 18.0759C219.271 18.1399 219.111 18.1839 218.935 18.2079C218.759 18.2319 218.591 18.2439 218.431 18.2439C218.223 18.2439 218.019 18.2239 217.819 18.1839C217.627 18.1439 217.451 18.0799 217.291 17.9919C217.139 17.8959 217.015 17.7719 216.919 17.6199C216.823 17.4599 216.771 17.2679 216.763 17.0439Z" fill="#2E86AB"/>
<path d="M223.555 12.7959V10.9359H222.535V12.7959H221.479V13.6959H222.535V17.6439C222.535 17.9319 222.563 18.1639 222.619 18.3399C222.675 18.5159 222.759 18.6519 222.871 18.7479C222.991 18.8439 223.143 18.9119 223.327 18.9519C223.519 18.9839 223.747 18.9999 224.011 18.9999H224.791V18.0999H224.323C224.163 18.0999 224.031 18.0959 223.927 18.0879C223.831 18.0719 223.755 18.0439 223.699 18.0039C223.643 17.9639 223.603 17.9079 223.579 17.8359C223.563 17.7639 223.555 17.6679 223.555 17.5479V13.6959H224.791V12.7959H223.555Z" fill="#2E86AB"/>
<path d="M227.004 11.6799V10.4319H225.984V11.6799H227.004ZM225.984 12.7959V18.9999H227.004V12.7959H225.984Z" fill="#2E86AB"/>
<path d="M230 12.7959V10.9359H228.98V12.7959H227.924V13.6959H228.98V17.6439C228.98 17.9319 229.008 18.1639 229.064 18.3399C229.12 18.5159 229.204 18.6519 229.316 18.7479C229.436 18.8439 229.588 18.9119 229.772 18.9519C229.964 18.9839 230.192 18.9999 230.456 18.9999H231.236V18.0999H230.768C230.608 18.0999 230.476 18.0959 230.372 18.0879C230.276 18.0719 230.2 18.0439 230.144 18.0039C230.088 17.9639 230.048 17.9079 230.024 17.8359C230.008 17.7639 230 17.6679 230 17.5479V13.6959H231.236V12.7959H230Z" fill="#2E86AB"/>
<path d="M133.152 20.4999H231.596V21.0999H133.152V20.4999Z" fill="#2E86AB"/>
<path d="M302.866 25.0041C302.566 24.6041 302.266 23.9041 301.666 23.0041C301.366 22.5041 300.466 21.5041 300.166 21.1041C299.966 20.7041 299.966 20.5041 300.066 20.1041C300.166 19.5041 300.766 19.0041 301.466 19.0041C301.966 19.0041 302.466 19.4041 302.866 19.7041C303.066 19.9041 303.366 20.3041 303.566 20.5041C303.766 20.7041 303.766 20.8041 303.966 21.0041C304.166 21.3041 304.266 21.5041 304.166 21.1041C304.066 20.6041 303.966 19.8041 303.766 19.0041C303.666 18.4041 303.566 18.3041 303.466 17.9041C303.366 17.4041 303.266 17.1041 303.166 16.6041C303.066 16.3041 302.966 15.5041 302.866 15.1041C302.766 14.6041 302.766 13.7041 303.166 13.3041C303.466 13.0041 304.066 12.9041 304.466 13.1041C304.966 13.4041 305.266 14.1041 305.366 14.4041C305.566 14.9041 305.766 15.6041 305.866 16.4041C306.066 17.4041 306.366 18.9041 306.366 19.2041C306.366 18.8041 306.266 18.1041 306.366 17.7041C306.466 17.4041 306.666 17.0041 307.066 16.9041C307.366 16.8041 307.666 16.8041 307.966 16.8041C308.266 16.9041 308.566 17.1041 308.766 17.3041C309.166 17.9041 309.166 19.2041 309.166 19.1041C309.266 18.7041 309.266 17.9041 309.466 17.5041C309.566 17.3041 309.966 17.1041 310.166 17.0041C310.466 16.9041 310.866 16.9041 311.166 17.0041C311.366 17.0041 311.766 17.3041 311.866 17.5041C312.066 17.8041 312.166 18.8041 312.266 19.2041C312.266 19.3041 312.366 18.8041 312.566 18.5041C312.966 17.9041 314.366 17.7041 314.466 19.1041C314.466 19.8041 314.466 19.7041 314.466 20.2041C314.466 20.7041 314.466 21.0041 314.466 21.4041C314.466 21.8041 314.366 22.7041 314.266 23.1041C314.166 23.4041 313.866 24.1041 313.566 24.5041C313.566 24.5041 312.466 25.7041 312.366 26.3041C312.266 26.9041 312.266 26.9041 312.266 27.3041C312.266 27.7041 312.366 28.2041 312.366 28.2041C312.366 28.2041 311.566 28.3041 311.166 28.2041C310.766 28.1041 310.266 27.4041 310.166 27.1041C309.966 26.8041 309.666 26.8041 309.466 27.1041C309.266 27.5041 308.766 28.2041 308.366 28.2041C307.666 28.3041 306.266 28.2041 305.266 28.2041C305.266 28.2041 305.466 27.2041 305.066 26.8041C304.766 26.5041 304.266 26.0041 303.966 25.7041L302.866 25.0041Z" fill="white"/>
<path d="M302.866 25.0041C302.566 24.6041 302.266 23.9041 301.666 23.0041C301.366 22.5041 300.466 21.5041 300.166 21.1041C299.966 20.7041 299.966 20.5041 300.066 20.1041C300.166 19.5041 300.766 19.0041 301.466 19.0041C301.966 19.0041 302.466 19.4041 302.866 19.7041C303.066 19.9041 303.366 20.3041 303.566 20.5041C303.766 20.7041 303.766 20.8041 303.966 21.0041C304.166 21.3041 304.266 21.5041 304.166 21.1041C304.066 20.6041 303.966 19.8041 303.766 19.0041C303.666 18.4041 303.566 18.3041 303.466 17.9041C303.366 17.4041 303.266 17.1041 303.166 16.6041C303.066 16.3041 302.966 15.5041 302.866 15.1041C302.766 14.6041 302.766 13.7041 303.166 13.3041C303.466 13.0041 304.066 12.9041 304.466 13.1041C304.966 13.4041 305.266 14.1041 305.366 14.4041C305.566 14.9041 305.766 15.6041 305.866 16.4041C306.066 17.4041 306.366 18.9041 306.366 19.2041C306.366 18.8041 306.266 18.1041 306.366 17.7041C306.466 17.4041 306.666 17.0041 307.066 16.9041C307.366 16.8041 307.666 16.8041 307.966 16.8041C308.266 16.9041 308.566 17.1041 308.766 17.3041C309.166 17.9041 309.166 19.2041 309.166 19.1041C309.266 18.7041 309.266 17.9041 309.466 17.5041C309.566 17.3041 309.966 17.1041 310.166 17.0041C310.466 16.9041 310.866 16.9041 311.166 17.0041C311.366 17.0041 311.766 17.3041 311.866 17.5041C312.066 17.8041 312.166 18.8041 312.266 19.2041C312.266 19.3041 312.366 18.8041 312.566 18.5041C312.966 17.9041 314.366 17.7041 314.466 19.1041C314.466 19.8041 314.466 19.7041 314.466 20.2041C314.466 20.7041 314.466 21.0041 314.466 21.4041C314.466 21.8041 314.366 22.7041 314.266 23.1041C314.166 23.4041 313.866 24.1041 313.566 24.5041C313.566 24.5041 312.466 25.7041 312.366 26.3041C312.266 26.9041 312.266 26.9041 312.266 27.3041C312.266 27.7041 312.366 28.2041 312.366 28.2041C312.366 28.2041 311.566 28.3041 311.166 28.2041C310.766 28.1041 310.266 27.4041 310.166 27.1041C309.966 26.8041 309.666 26.8041 309.466 27.1041C309.266 27.5041 308.766 28.2041 308.366 28.2041C307.666 28.3041 306.266 28.2041 305.266 28.2041C305.266 28.2041 305.466 27.2041 305.066 26.8041C304.766 26.5041 304.266 26.0041 303.966 25.7041L302.866 25.0041Z" stroke="black" stroke-width="0.75" stroke-linecap="round" stroke-linejoin="round"/>
<path d="M311.166 25.3041V21.9041" stroke="black" stroke-width="0.75" stroke-linecap="round"/>
<path d="M309.166 25.3041L309.066 21.9041" stroke="black" stroke-width="0.75" stroke-linecap="round"/>
<path d="M307.166 21.9041V25.3041" stroke="black" stroke-width="0.75" stroke-linecap="round"/>
</svg>
