<svg width="105" height="90" viewBox="0 0 105 90" fill="none" xmlns="http://www.w3.org/2000/svg">
<path d="M88.4134 18.0789H57.1762L41.59 45.2519L57.1762 72.3601H88.4134L104.064 45.2519L88.4134 18.0789Z" fill="black"/>
<path d="M60.0864 50.9589C61.7033 52.5154 63.7728 53.4233 66.0364 53.553C68.5586 53.553 69.9815 52.3857 69.9815 50.6347C69.9815 48.754 68.5587 48.1703 66.4244 47.3272L63.3201 45.9005C61.0565 44.9277 58.793 43.1767 58.793 39.8044C58.793 36.1727 61.962 33.384 66.3598 33.384C68.9467 33.384 71.4689 34.4217 73.3445 36.3024L71.2749 38.8965C69.9168 37.6643 68.1706 36.9509 66.3598 36.9509C64.2255 36.9509 62.8027 37.9237 62.8027 39.6098C62.8027 41.3608 64.5489 42.0742 66.4244 42.7876L69.4641 44.0846C72.1804 45.252 74.0559 46.9381 74.0559 50.2456C74.0559 53.9421 71.0162 56.9902 65.907 56.9902C62.8674 56.9902 59.9571 55.8228 57.7582 53.6827L60.0864 50.9589Z" fill="white"/>
<path d="M84.5331 39.0912C89.1249 39.0912 91.5825 42.3986 91.5825 47.1977C91.5825 47.8462 91.5178 48.4299 91.3884 49.0784H80.588C80.9114 52.1913 82.8516 53.8775 85.6325 53.8775C87.0553 53.8775 88.4135 53.4235 89.5776 52.6453L90.9357 55.1745C89.1896 56.3418 87.1847 56.9904 85.1151 56.9904C80.394 56.9904 76.7076 53.6829 76.7076 48.0408C76.7076 42.3986 80.5233 39.0912 84.5331 39.0912ZM88.0901 46.5492C88.0901 43.8254 86.926 42.2041 84.5978 42.2041C82.5929 42.2041 80.8467 43.6957 80.5233 46.5492H88.0901Z" fill="white"/>
<path d="M50.1272 0.439237C58.8581 -1.57118 71.5987 3.35758 73.3449 14.4473C73.7329 16.9117 73.4742 19.5706 71.4047 20.9325C69.2705 22.3592 67.0716 23.8508 64.9373 25.4073C60.7983 28.3905 56.7238 31.5034 52.7788 34.746C48.769 37.9237 45.018 41.4257 41.5256 45.1871C46.3761 50.3753 52.0027 54.7853 57.5646 59.0006C60.6042 61.3353 63.7085 63.5403 66.8775 65.6804C68.6237 66.8477 70.3699 67.9502 72.1161 69.1176C73.5389 70.0903 73.9269 71.9062 73.9269 73.7221C73.8623 82.3474 66.2955 87.6652 59.6341 89.2866C57.7586 89.7405 55.8831 89.9351 54.0076 89.9351C52.4554 89.9351 50.5799 89.8054 49.1571 89.0271C48.0576 88.4435 47.4756 86.8222 46.8935 85.7197C46.0527 84.1632 45.1473 82.6068 44.2419 81.0503C40.3615 74.3057 36.1577 67.8854 31.954 61.4002C31.1132 60.1031 29.367 59.714 28.1382 60.5571C27.8795 60.7516 27.6208 60.9462 27.4268 61.2705C26.0687 63.0863 24.8399 64.967 23.6111 66.8477C21.8003 69.5715 20.0541 72.2953 18.3726 75.0839C17.5965 76.4458 16.7557 77.7429 16.0443 79.1048C15.5269 80.0127 15.0742 81.5692 13.9101 81.5692C11.0645 81.5043 8.08951 79.1048 6.01997 77.0944C3.49771 74.63 1.68686 71.4522 0.846105 68.0151C0.393392 66.4586 0.264045 64.7725 0.522739 63.1512C0.846105 61.5947 2.72163 60.8813 3.82108 60.0383C14.8802 51.6075 19.084 45.3169 19.084 45.3169C19.084 45.3169 18.2432 44.3441 18.0492 44.1495C16.9498 42.9822 15.8503 41.8148 14.7509 40.6475C12.2933 38.248 9.70635 35.9133 6.99007 33.7083C5.63193 32.6059 4.27379 31.5682 2.85098 30.5306C2.0749 30.0766 1.36349 29.5578 0.716759 29.039C0.264046 28.4553 0.0700255 27.8068 0.0700255 27.0934C-0.318014 23.7211 0.975452 20.0894 2.65696 17.3008C4.40314 14.3824 6.86072 11.9181 9.77102 10.2319C10.8058 9.64823 12.358 8.80515 13.5867 9.06456C14.4922 9.32397 15.2036 11.1398 15.6563 11.9829C19.1486 17.8196 22.8997 23.5266 26.9741 28.9741C27.9442 30.2063 29.6904 30.4657 30.9192 29.493C31.1132 29.2984 31.3072 29.1038 31.5012 28.9093C33.7648 25.7315 37.1278 20.9973 38.2919 19.1815C40.1028 16.328 41.7843 13.4096 43.4011 10.4265C44.8239 7.70267 46.0527 4.91403 47.4109 2.19024C48.0576 1.02291 49.0277 0.698645 50.1272 0.439237Z" fill="#2E86AB"/>
<path d="M41.5896 45.252C41.9129 44.9277 42.2363 44.5386 42.5597 44.2144C45.7933 40.9069 49.221 37.7291 52.8427 34.8108C56.7878 31.5034 60.8622 28.3905 65.0013 25.4721C67.1355 23.9157 69.3344 22.4241 71.4686 20.9973C73.5382 19.6354 73.7969 16.9765 73.4088 14.5121C71.598 3.35756 58.922 -1.5712 50.1264 0.439218C49.027 0.698627 48.0569 1.02289 47.4748 2.19022C46.1167 4.91401 44.8879 7.7675 43.4651 10.4264C41.8482 13.4096 40.1667 16.328 38.3559 19.1815C37.1918 21.0622 33.8288 25.7964 31.5652 28.9093C30.6598 30.1415 28.9136 30.4657 27.6201 29.5578C27.4261 29.3632 27.1674 29.1687 27.0381 28.9741C25.8093 27.3528 24.1924 25.1479 22.5109 22.6186C25.5506 29.4929 24.5158 38.3128 19.1479 45.3168C19.1479 45.3168 14.9442 51.6075 3.88503 60.0383C2.72091 60.9462 0.845381 61.6596 0.522015 63.2809C0.263322 64.9022 0.392668 66.5883 0.845381 68.1448C1.68613 71.5819 3.49699 74.7597 6.01924 77.2241C8.08879 79.2345 11.0638 81.634 13.9094 81.6988C15.0088 81.6988 15.5262 80.2072 16.0436 79.2345C16.8197 77.8726 17.5958 76.5107 18.3718 75.2136C20.0533 72.425 21.7995 69.7012 23.6104 66.9774C24.8392 65.0967 26.068 63.2809 27.4261 61.4001C28.3315 60.168 30.0777 59.9086 31.3065 60.8165C31.5652 61.011 31.8239 61.2704 32.0179 61.5299L35.4456 66.7829C33.8934 59.714 35.963 51.6075 41.5896 45.252Z" fill="url(#paint0_linear)"/>
<path opacity="0.5" d="M19.0834 45.3168C19.0834 45.3168 18.2426 44.344 18.0486 44.1495C16.9491 42.9821 15.8497 41.8148 14.7502 40.6475C12.2927 38.2479 9.70573 35.9133 6.98945 33.7083C5.63131 32.6058 4.27317 31.5682 2.85036 30.5305C2.07428 30.0766 1.36287 29.5578 0.716141 29.0389C0.263428 28.4553 0.0694082 27.8068 0.0694082 27.0934C-0.318632 23.7211 0.974834 20.0894 2.59167 17.3007C4.33785 14.3824 6.79543 11.918 9.7704 10.2319C10.8052 9.64818 12.3573 8.80511 13.5215 9.06452C14.4269 9.32392 15.1383 11.1398 15.591 11.9829C17.7252 15.6794 20.1828 19.4408 22.3817 22.6186C25.486 29.4929 24.4512 38.3128 19.0834 45.3168Z" fill="url(#paint1_linear)"/>
<path opacity="0.5" d="M73.9261 73.7869C73.8614 82.4122 66.2946 87.7301 59.698 89.3514C57.8224 89.8054 55.9469 89.9999 54.0714 89.9999C52.5192 89.9999 50.6437 89.8702 49.2209 89.092C48.1214 88.5083 47.5394 86.887 46.9573 85.7846C46.1166 84.2281 45.2111 82.6717 44.3057 81.1152C41.4601 76.1864 38.4851 71.4522 35.4455 66.7181C33.8933 59.6492 35.9629 51.4778 41.5894 45.1223C46.4399 50.3105 52.0665 54.7204 57.6284 58.9358C60.6681 61.2705 63.7724 63.4754 66.9414 65.6156C68.6875 66.7829 70.4337 67.8854 72.1152 69.0527C73.538 70.0904 73.9261 71.9711 73.9261 73.7869Z" fill="url(#paint2_linear)"/>
<path d="M3.17368 73.657C3.49704 74.2407 3.88508 74.7595 4.27312 75.2783C3.88508 74.7595 3.56172 74.1759 3.17368 73.657Z" fill="url(#paint3_linear)"/>
<path d="M4.3378 75.2784C4.72584 75.7973 5.17855 76.3161 5.63127 76.77C5.11388 76.2512 4.72584 75.7973 4.3378 75.2784Z" fill="url(#paint4_linear)"/>
<path d="M35.4455 66.7829L33.8934 64.3185L35.4455 66.7829Z" fill="url(#paint5_linear)"/>
<g opacity="0.9">
<path opacity="0.9" d="M41.7187 30.5306C42.8828 32.0222 44.7583 32.8005 46.6338 32.7356C48.8974 32.6059 50.4495 31.0494 52.1311 29.6876C56.2701 26.5098 60.5386 23.5915 65.001 20.8677L68.3641 18.7924C68.8168 18.533 69.7869 18.1439 70.0456 17.6899C70.8863 16.3929 70.3043 13.9934 69.9162 12.5666C68.9461 9.25916 66.3592 6.53537 63.3842 4.84922C61.5734 3.81158 59.5685 3.09821 57.4989 2.7091C56.2055 2.57939 54.8473 2.51454 53.4892 2.64425C52.6484 2.77395 51.8077 2.90366 51.0316 3.09821C50.4495 3.29277 49.9968 3.74673 49.8028 4.3304C49.6088 4.97892 49.2854 5.75715 49.1561 6.14626L48.5093 7.89726C48.0566 9.12945 47.6039 10.3616 47.0865 11.529C45.4697 15.6147 43.5942 19.6355 41.46 23.4618C40.1665 25.7316 39.9725 28.3905 41.7187 30.5306Z" fill="url(#paint6_linear)"/>
</g>
<defs>
<linearGradient id="paint0_linear" x1="-4.33327" y1="55.7421" x2="77.2076" y2="22.8839" gradientUnits="userSpaceOnUse">
<stop stop-color="white" stop-opacity="0"/>
<stop offset="0.44" stop-color="white" stop-opacity="0.5"/>
<stop offset="1" stop-color="white" stop-opacity="0"/>
</linearGradient>
<linearGradient id="paint1_linear" x1="-0.0599384" y1="27.185" x2="24.1238" y2="27.185" gradientUnits="userSpaceOnUse">
<stop stop-color="white" stop-opacity="0.25"/>
<stop offset="1"/>
</linearGradient>
<linearGradient id="paint2_linear" x1="34.965" y1="67.5959" x2="73.9223" y2="67.5959" gradientUnits="userSpaceOnUse">
<stop/>
<stop offset="1" stop-color="white" stop-opacity="0.25"/>
</linearGradient>
<linearGradient id="paint3_linear" x1="3.54994" y1="74.5242" x2="3.95771" y2="74.3564" gradientUnits="userSpaceOnUse">
<stop stop-color="white" stop-opacity="0"/>
<stop offset="0.44" stop-color="white" stop-opacity="0.5"/>
<stop offset="1" stop-color="white" stop-opacity="0"/>
</linearGradient>
<linearGradient id="paint4_linear" x1="4.66492" y1="76.113" x2="5.24095" y2="75.8806" gradientUnits="userSpaceOnUse">
<stop stop-color="white" stop-opacity="0"/>
<stop offset="0.44" stop-color="white" stop-opacity="0.5"/>
<stop offset="1" stop-color="white" stop-opacity="0"/>
</linearGradient>
<linearGradient id="paint5_linear" x1="34.3701" y1="65.6651" x2="34.8815" y2="65.4585" gradientUnits="userSpaceOnUse">
<stop stop-color="white" stop-opacity="0"/>
<stop offset="0.44" stop-color="white" stop-opacity="0.5"/>
<stop offset="1" stop-color="white" stop-opacity="0"/>
</linearGradient>
<linearGradient id="paint6_linear" x1="41.007" y1="29.9021" x2="65.1164" y2="5.85916" gradientUnits="userSpaceOnUse">
<stop offset="0.17" stop-color="white" stop-opacity="0"/>
<stop offset="0.25" stop-color="white" stop-opacity="0.03"/>
<stop offset="0.36" stop-color="white" stop-opacity="0.11"/>
<stop offset="0.5" stop-color="white" stop-opacity="0.24"/>
<stop offset="0.66" stop-color="white" stop-opacity="0.42"/>
<stop offset="0.83" stop-color="white" stop-opacity="0.65"/>
<stop offset="1" stop-color="white" stop-opacity="0.9"/>
</linearGradient>
</defs>
</svg>
