<svg width="107" height="90" viewBox="0 0 107 90" fill="none" xmlns="http://www.w3.org/2000/svg">
<path fill-rule="evenodd" clip-rule="evenodd" d="M90.8371 18.1208H58.7568L42.7166 45.2487L58.7568 72.3766H90.8371L106.877 45.2487L90.8371 18.1208Z" fill="black"/>
<path d="M53.2437 33.4653H57.5941L59.5867 45.1388C59.9852 47.6097 60.3837 50.087 60.7822 52.532H60.9283C61.3999 50.087 61.9445 47.5772 62.4493 45.1388L65.385 33.4653H69.0513L71.9871 45.1388C72.4985 47.5383 73.0365 50.0546 73.5479 52.532H73.7007C74.0992 50.0546 74.4578 47.5772 74.8564 45.1388L76.8888 33.4653H80.947L76.3574 56.6047H71.1435L68.2078 44.4319C67.8093 42.629 67.4839 40.865 67.1584 39.0945H67.0123C66.6868 40.865 66.3481 42.629 65.9629 44.4319L63.0736 56.6047H57.9528L53.2437 33.4653Z" fill="white"/>
<path d="M84.8061 44.2242H82.2689V41.1826L85.0186 41.001L85.53 36.2603H88.9772V41.001H93.5069V44.2437H88.9772V50.729C88.9772 52.7848 89.7742 53.777 91.4812 53.777C92.1158 53.7583 92.7416 53.6265 93.3276 53.3879L94.0781 56.423C92.9156 56.8296 91.693 57.0486 90.4583 57.0716C86.327 57.0716 84.8061 54.5293 84.8061 50.7744V44.2242Z" fill="white"/>
<path d="M51.538 0.448563C60.5311 -1.58781 73.5758 3.34748 75.4023 14.4762C75.8074 16.9601 75.5351 19.619 73.4097 20.9615C71.1958 22.4142 68.9818 23.9036 66.7678 25.4298C62.5104 28.4001 58.326 31.5065 54.2678 34.801C50.1766 38.0112 46.3153 41.4911 42.7109 45.2164C47.7122 50.4046 53.4641 54.847 59.1629 59.043C62.2912 61.3582 65.4859 63.5827 68.7205 65.7098C70.4873 66.8772 72.2939 67.9862 74.0341 69.147C75.4953 70.1004 75.927 71.9746 75.9203 73.7451C75.8739 82.377 68.0564 87.7014 61.2683 89.3097C59.3737 89.7644 57.4275 89.9823 55.4766 89.9583C53.856 89.9583 51.9763 89.835 50.4819 89.0698C49.386 88.4991 48.7882 86.8648 48.1705 85.7882C47.2805 84.2383 46.3839 82.6818 45.4739 81.1383C41.4888 74.3936 37.1849 67.9732 32.8544 61.5009C32.6019 61.1233 32.2594 60.811 31.8562 60.591C31.453 60.371 31.0012 60.2497 30.5395 60.2376C30.0778 60.2255 29.62 60.3229 29.2053 60.5215C28.7906 60.72 28.4314 61.0138 28.1585 61.3777C26.7903 63.2065 25.5018 65.0483 24.2332 66.9161C22.3867 69.614 20.5868 72.3508 18.8599 75.1459C18.0363 76.4819 17.2304 77.8287 16.4422 79.1862C15.891 80.1266 15.4128 81.6441 14.2571 81.6182C11.3346 81.5663 8.27937 79.1862 6.16724 77.1499C3.58472 74.6506 1.74785 71.5118 0.853735 68.0705C0.378118 66.4907 0.260266 64.8288 0.508357 63.2C0.90687 61.6111 2.79981 60.8913 3.96214 60.0287C15.3264 51.5979 19.6636 45.3461 19.6636 45.3461C19.6636 45.3461 18.8267 44.3863 18.6274 44.1723C17.516 42.979 16.3758 41.8181 15.2069 40.6897C12.6587 38.2352 9.98291 35.9104 7.1901 33.7245C5.7953 32.6306 4.37394 31.5735 2.926 30.5532C2.15364 30.1084 1.41654 29.6076 0.720897 29.0551C0.289765 28.4938 0.0567083 27.8111 0.0567083 27.1095C-0.295312 23.6788 1.03971 20.0276 2.72675 17.2843C4.50917 14.365 7.04132 11.9507 10.0727 10.2802C11.1155 9.72899 12.7626 8.82105 13.9648 9.08046C14.908 9.30096 15.6054 11.1298 16.1102 11.9794C19.6792 17.8441 23.5704 23.5162 27.7667 28.9708C28.0392 29.3227 28.3923 29.6075 28.7977 29.8023C29.2031 29.9971 29.6495 30.0966 30.1013 30.0929C30.5532 30.0891 30.9978 29.9821 31.3997 29.7805C31.8017 29.5789 32.1497 29.2883 32.416 28.9319C34.7407 25.7606 38.1745 21.0458 39.39 19.204C41.2497 16.3634 43.0098 13.445 44.6437 10.4489C46.1182 7.75098 47.3802 4.93637 48.7816 2.19959C49.3993 1.0063 50.3823 0.707973 51.538 0.448563Z" fill="#39AAAA"/>
<path d="M42.7167 45.2489C43.0355 44.8987 43.3809 44.5614 43.693 44.2307C47.0322 40.9026 50.5649 37.765 54.2736 34.8335C58.3317 31.539 62.5161 28.4326 66.7736 25.4623C68.9875 23.9404 71.2015 22.451 73.4155 20.994C75.5276 19.6191 75.7999 16.9601 75.408 14.5087C73.5749 3.34756 60.5302 -1.58773 51.5371 0.448642C50.3814 0.708053 49.3984 1.00638 48.8073 2.17372C47.4058 4.91051 46.1505 7.72512 44.6694 10.423C43.0355 13.4192 41.2754 16.3376 39.4157 19.1781C38.2002 21.0459 34.7663 25.7606 32.4417 28.906C32.1754 29.2624 31.8273 29.5531 31.4254 29.7546C31.0235 29.9562 30.5789 30.0632 30.127 30.067C29.6752 30.0708 29.2287 29.9713 28.8234 29.7764C28.418 29.5816 28.0649 29.2968 27.7924 28.9449C26.537 27.3106 24.8965 25.1056 23.1098 22.5958C26.2249 29.4573 25.1755 38.2837 19.6826 45.2943C19.6826 45.2943 15.3455 51.5461 3.98119 59.9769C2.79894 60.8914 0.905998 61.6112 0.547336 63.239C0.301196 64.8635 0.419033 66.5208 0.892714 68.0965C1.78683 71.5378 3.6237 74.6766 6.20622 77.1759C8.30506 79.2122 11.3736 81.5923 14.296 81.6442C15.4517 81.6442 15.9299 80.1526 16.4812 79.2122C17.2694 77.8547 18.0753 76.5079 18.8989 75.1719C20.6258 72.3768 22.4257 69.64 24.2722 66.9421C25.554 65.0744 26.8293 63.2325 28.1975 61.4037C28.4704 61.0398 28.8296 60.746 29.2443 60.5475C29.659 60.3489 30.1168 60.2515 30.5785 60.2636C31.0402 60.2757 31.492 60.397 31.8952 60.617C32.2983 60.8371 32.6409 61.1493 32.8933 61.5269L36.4002 66.7994C34.846 59.7499 36.9382 51.5915 42.7167 45.2489Z" fill="url(#paint0_linear)"/>
<path style="mix-blend-mode:multiply" opacity="0.5" d="M19.656 45.3463C19.656 45.3463 18.8191 44.3865 18.6132 44.1725C17.504 42.9792 16.3616 41.8248 15.1993 40.6964C12.6521 38.2413 9.97864 35.9144 7.18919 33.7247C5.79439 32.6222 4.37303 31.563 2.9251 30.547C2.15168 30.1037 1.41446 29.6029 0.719989 29.0489C0.285803 28.4891 0.0523943 27.8054 0.0558005 27.1033C-0.269652 23.7309 1.07201 20.0732 2.75241 17.33C4.52373 14.401 7.04647 11.9735 10.0718 10.287C11.1079 9.72924 12.7285 8.82778 13.9573 9.10665C14.9071 9.33363 15.5978 11.1625 16.1026 12.0121C18.3144 15.7216 20.8117 19.4571 23.0832 22.622C26.1916 29.5028 25.1356 38.3228 19.656 45.3463Z" fill="url(#paint1_linear)"/>
<path style="mix-blend-mode:multiply" opacity="0.5" d="M75.9526 73.7841C75.9128 82.4095 68.0952 87.7339 61.3404 89.3487C59.4468 89.8093 57.4999 90.0273 55.5487 89.9973C53.9281 89.9973 52.0418 89.8805 50.554 89.1088C49.4581 88.5446 48.8537 86.9038 48.2426 85.8337C47.3526 84.2773 46.456 82.7208 45.546 81.1773C42.6502 76.2679 39.5683 71.5207 36.4466 66.7995C34.8792 59.7111 36.978 51.5591 42.7498 45.223C47.7511 50.4112 53.4964 54.8536 59.1951 59.056C62.3301 61.3648 65.5182 63.5849 68.7594 65.7164C70.5262 66.8902 72.3261 67.9992 74.0729 69.1536C75.5275 70.1329 75.9659 71.9877 75.9526 73.7841Z" fill="url(#paint2_linear)"/>
<path d="M3.29718 73.6542C3.65582 74.2118 4.04766 74.7499 4.45279 75.2686C4.04988 74.7499 3.66467 74.2118 3.29718 73.6542Z" fill="url(#paint3_linear)"/>
<path d="M4.46686 75.2692C4.87863 75.7814 5.31696 76.2806 5.79515 76.7474C5.2904 76.2806 4.87863 75.7814 4.46686 75.2692Z" fill="url(#paint4_linear)"/>
<path d="M36.4132 66.7987L34.7927 64.3478L36.4132 66.7987Z" fill="url(#paint5_linear)"/>
<g style="mix-blend-mode:lighten" opacity="0.9">
<path style="mix-blend-mode:lighten" opacity="0.9" d="M42.8692 30.5726C43.4724 31.3017 44.2433 31.8814 45.1193 32.2645C45.9953 32.6477 46.9516 32.8235 47.9103 32.7776C50.2549 32.6544 51.8291 31.098 53.5825 29.7555C57.8031 26.5683 62.2145 23.6296 66.7932 20.955L70.267 18.8992C70.7518 18.6073 71.695 18.2506 72.0138 17.7707C72.8706 16.4737 72.2861 14.1001 71.8544 12.6798C70.8315 9.35932 68.188 6.66145 65.1527 4.95582C63.2837 3.91259 61.2429 3.19498 59.1219 2.83514C57.7445 2.60408 56.3417 2.55392 54.9508 2.68598C54.0958 2.79114 53.2467 2.93833 52.4069 3.12698C52.1143 3.22909 51.8501 3.39664 51.6356 3.61622C51.4211 3.83581 51.2622 4.10134 51.1715 4.3916C50.9457 5.04013 50.6601 5.79891 50.5073 6.16857C50.2881 6.74576 50.069 7.31646 49.8431 7.89365C49.3716 9.1064 48.9133 10.3256 48.4151 11.5254C46.7758 15.637 44.8381 19.6291 42.6168 23.4713C41.2618 25.7541 41.1157 28.426 42.8692 30.5726Z" fill="url(#paint6_linear)"/>
</g>
<defs>
<linearGradient id="paint0_linear" x1="-4.40751" y1="55.7874" x2="78.7034" y2="21.393" gradientUnits="userSpaceOnUse">
<stop stop-color="white" stop-opacity="0"/>
<stop offset="0.44" stop-color="white" stop-opacity="0.5"/>
<stop offset="1" stop-color="white" stop-opacity="0"/>
</linearGradient>
<linearGradient id="paint1_linear" x1="-0.0239022" y1="27.2006" x2="24.8168" y2="27.2006" gradientUnits="userSpaceOnUse">
<stop stop-color="white" stop-opacity="0.25"/>
<stop offset="1"/>
</linearGradient>
<linearGradient id="paint2_linear" x1="35.9153" y1="67.6361" x2="75.9526" y2="67.6361" gradientUnits="userSpaceOnUse">
<stop/>
<stop offset="1" stop-color="white" stop-opacity="0.25"/>
</linearGradient>
<linearGradient id="paint3_linear" x1="9.7455" y1="259.217" x2="10.5291" y2="258.986" gradientUnits="userSpaceOnUse">
<stop stop-color="white" stop-opacity="0"/>
<stop offset="0.44" stop-color="white" stop-opacity="0.5"/>
<stop offset="1" stop-color="white" stop-opacity="0"/>
</linearGradient>
<linearGradient id="paint4_linear" x1="14.1634" y1="248.788" x2="15.3785" y2="248.347" gradientUnits="userSpaceOnUse">
<stop stop-color="white" stop-opacity="0"/>
<stop offset="0.44" stop-color="white" stop-opacity="0.5"/>
<stop offset="1" stop-color="white" stop-opacity="0"/>
</linearGradient>
<linearGradient id="paint5_linear" x1="121.101" y1="312.715" x2="122.492" y2="312.343" gradientUnits="userSpaceOnUse">
<stop stop-color="white" stop-opacity="0"/>
<stop offset="0.44" stop-color="white" stop-opacity="0.5"/>
<stop offset="1" stop-color="white" stop-opacity="0"/>
</linearGradient>
<linearGradient id="paint6_linear" x1="42.1452" y1="29.9176" x2="66.2506" y2="5.23012" gradientUnits="userSpaceOnUse">
<stop offset="0.17" stop-color="white" stop-opacity="0"/>
<stop offset="0.25" stop-color="white" stop-opacity="0.03"/>
<stop offset="0.36" stop-color="white" stop-opacity="0.11"/>
<stop offset="0.5" stop-color="white" stop-opacity="0.24"/>
<stop offset="0.66" stop-color="white" stop-opacity="0.42"/>
<stop offset="0.83" stop-color="white" stop-opacity="0.65"/>
<stop offset="1" stop-color="white" stop-opacity="0.9"/>
</linearGradient>
</defs>
</svg>
