<svg width="103" height="25" xmlns="http://www.w3.org/2000/svg"><g fill="none"><path d="M25.081.024h77.88l.012 17.866-10.1-.004.005 7.055h-67.88v-.024H0V0h25.081v.024z" fill="#E94640"/><path d="M43.14 9.012h2.285a.703.703 0 00.706-.686V4.153a1.41 1.41 0 00-1.414-1.405H29.763a1.41 1.41 0 00-1.411 1.405v15.992a1.41 1.41 0 001.411 1.404H44.72a1.41 1.41 0 001.413-1.404v-3.91a.704.704 0 00-.706-.703H43.14a.709.709 0 00-.5.206.7.7 0 00-.208.496l.005.788a1.174 1.174 0 01-1.176 1.167h-4.777c-.648 0-1.174-.52-1.177-1.162v-3.555l-3.212-3.156V7.233a1.169 1.169 0 011.179-1.17h7.99c.65 0 1.177.524 1.177 1.17l-.005 1.08a.704.704 0 00.704.7zM66.825 2.75H64.53a.707.707 0 00-.499.207.698.698 0 00-.205.496v6.255a1.172 1.172 0 01-1.17 1.17h-8.05a1.187 1.187 0 01-1.192-1.17V3.453a.717.717 0 00-.72-.702h-2.297a.705.705 0 00-.707.702l.03 16.694c0 .372.148.73.413.993s.624.411 1 .411h4.122a1.41 1.41 0 001.414-1.404v-4.743l.027-.066c0-.646.528-1.104 1.178-1.104h4.756a1.18 1.18 0 011.186 1.17l.007-.066-.007 5.51a.712.712 0 00.714.701h2.296a.709.709 0 00.5-.206.7.7 0 00.207-.496V3.453a.704.704 0 00-.707-.702zm8.251 7.601V3.453a.704.704 0 00-.706-.702h-2.358a.721.721 0 00-.725.702v16.694c-.004.37.14.727.403.991.262.264.619.413.992.413h4.158c.376 0 .735-.148 1-.412a1.4 1.4 0 00.413-.994v-6.62l-3.177-3.174zM97.977 2.75H83.18c-.375 0-.734.148-1 .41a1.4 1.4 0 00-.414.993v15.992c0 .372.148.73.413.993s.625.411 1 .411h4.18c.782 0 1.417-.628 1.421-1.404v-4.791a1.182 1.182 0 011.179-1.174h8.018a1.41 1.41 0 001.413-1.406V4.153c0-.774-.633-1.402-1.412-1.402zm-2.189 7.367a.704.704 0 01-.706.702h-8.95a.704.704 0 01-.707-.702V6.695a.7.7 0 01.206-.497.709.709 0 01.5-.205h8.95a.7.7 0 01.706.703l.001 3.421zm-87.88-6.17L6.423 2.472a10.736 10.736 0 00-4.279 8.099H4.22a8.707 8.707 0 013.688-6.624zm12.866 6.624h2.076a10.794 10.794 0 00-4.278-8.097L17.096 3.95a8.745 8.745 0 013.679 6.62h-.001zm-2.047.514c0-3.168-1.703-5.818-4.67-6.521v-.7c0-.854-.698-1.548-1.56-1.548-.86 0-1.557.694-1.557 1.549v.703c-2.98.701-4.67 3.341-4.67 6.52v5.157l-2.08 2.062v1.031h16.615v-1.03l-2.078-2.063v-5.16zm-6.23 11.349a1.9 1.9 0 00.418-.041 2.033 2.033 0 001.651-2.022h-4.155a2.083 2.083 0 002.086 2.063z" fill="#FFF"/><path d="M11.062 11.944a2.376 2.376 0 01-3.345 0 2.339 2.339 0 010-3.323 2.37 2.37 0 013.345 0 2.339 2.339 0 010 3.323zm-.96-.95a1 1 0 00.126-1.27A1.015 1.015 0 009 9.354a1.004 1.004 0 00.387 1.933.974.974 0 00.715-.294zm4.452-3.104h.962l-5.132 9.395H9.4l5.154-9.395zm2.682 8.65c-.929.886-2.4.871-3.311-.033a2.339 2.339 0 01-.033-3.29 2.376 2.376 0 013.31.034c.911.904.926 2.366.034 3.289zm-.957-2.37a1.018 1.018 0 00-1.28-.128 1.003 1.003 0 00-.374 1.222 1.015 1.015 0 001.95-.384.964.964 0 00-.296-.71z" fill="#E94640"/></g></svg>