<svg width="71" height="23" xmlns="http://www.w3.org/2000/svg"><g fill="none" fill-rule="evenodd"><path fill="#B9B9B9" d="M71.068 16.464l-9.249.03.005 6.47H-.343V-.006h71.4l.01 16.469"/><path d="M16.379 8.332h2.103a.65.65 0 00.653-.633h.003V3.826c0-.719-.581-1.302-1.305-1.302H4.05c-.719 0-1.302.583-1.302 1.302v14.836c0 .718.583 1.302 1.302 1.302h13.784c.724 0 1.305-.584 1.305-1.302l-.003-3.625a.655.655 0 00-.653-.656H16.38a.65.65 0 00-.651.656l.005.726c0 .603-.488 1.086-1.09 1.086H10.24a1.085 1.085 0 01-1.084-1.086v-3.295l-2.962-2.93V6.683c0-.598.486-1.086 1.087-1.086h7.363c.6 0 1.089.488 1.089 1.086l-.005 1c0 .362.288.65.65.65m21.835-5.809h-2.116c-.36 0-.648.29-.648.65v5.807c0 .598-.484 1.083-1.084 1.083h-7.416c-.6 0-1.099-.485-1.099-1.083V3.175a.663.663 0 00-.666-.651H23.07a.65.65 0 00-.651.65l.024 15.488c0 .721.586 1.302 1.302 1.302h3.803a1.3 1.3 0 001.302-1.302v-4.396l.028-.066c0-.595.483-1.02 1.081-1.02h4.387c.598 0 1.094.485 1.094 1.086l.007-.066-.007 5.113c0 .36.298.65.658.65h2.116a.65.65 0 00.65-.65V3.175a.65.65 0 00-.65-.651m7.6 7.055v-6.4a.648.648 0 00-.651-.65h-2.176a.662.662 0 00-.666.65v15.483a1.29 1.29 0 001.287 1.307h3.833c.718 0 1.3-.586 1.3-1.307v-6.139L45.814 9.58m19.09-.224a.65.65 0 01-.646.654h-8.252a.65.65 0 01-.651-.654V6.184c0-.36.29-.65.651-.65h8.252c.355 0 .646.29.646.65v3.172m2.018-6.832h-13.64c-.721 0-1.307.585-1.307 1.302v14.836c0 .721.586 1.302 1.307 1.302h3.853c.719 0 1.307-.58 1.307-1.302v-4.444c0-.6.493-1.09 1.094-1.09h7.386c.72 0 1.304-.585 1.304-1.301V3.826c0-.717-.584-1.302-1.304-1.302" fill="#FFFFFE"/></g></svg>