<svg width="76" height="74" xmlns="http://www.w3.org/2000/svg"><path d="M45.595 66.413c.053 3.612-2.5 6.743-6.06 7.436A6.71 6.71 0 0138 74c-4.128-.008-7.494-3.263-7.65-7.34l-.006-.246h15.251zM38.003 0c3.086 0 5.6 2.432 5.716 5.476l.004.219v2.572c10.767 2.555 17 12.108 17.143 23.58l.002.406v18.982l7.626 7.586v3.791H7.506v-3.791l7.638-7.586V32.262c0-11.553 6.059-21.175 16.76-23.887l.379-.092V5.695c0-3.145 2.56-5.695 5.72-5.695zM44 44H32a6.038 6.038 0 006.024 6c.405.006.81-.033 1.207-.12A5.904 5.904 0 0043.999 44zm5.728-7a2.727 2.727 0 100 5.455 2.727 2.727 0 000-5.455zm-24 0a2.727 2.727 0 100 5.455 2.727 2.727 0 000-5.455zM15.706.571l5.45 5.426a32.047 32.047 0 00-13.504 23.87l-.032.495H0A39.515 39.515 0 0115.706.572zm44.591.01a39.731 39.731 0 0115.674 29.24l.029.541h-7.617A32.182 32.182 0 0055.283 6.3l-.402-.29L60.297.58z" fill="#FFF"/></svg>