<svg width="56" height="56" xmlns="http://www.w3.org/2000/svg"><g fill="none" fill-rule="evenodd"><rect fill="#E94640" width="55.138" height="55.138" rx="8.615"/><path d="M17.93 10.302l-3.073-2.987C9.541 11.228 6.295 17.24 6 23.715h4.297c.311-5.367 3.121-10.304 7.634-13.413zm26.633 13.413h4.297c-.313-6.469-3.555-12.472-8.856-16.395l-3.054 2.988c4.495 3.12 7.294 8.049 7.615 13.407h-.002zm-4.237 1.041c0-6.415-3.525-11.782-9.669-13.205v-1.416C30.657 8.404 29.213 7 27.432 7c-1.782 0-3.226 1.404-3.226 3.135v1.425c-6.168 1.42-9.666 6.766-9.666 13.201v10.445l-4.307 4.176v2.088h34.394v-2.088l-4.3-4.176v-10.45zM27.43 47.738c-2.375-.004-4.302-1.868-4.318-4.176h8.601c.03 1.989-1.41 3.713-3.418 4.094-.284.06-.574.087-.865.082zm-2.971-21.243c-1.912 1.858-5.011 1.858-6.923 0a4.685 4.685 0 01-1.436-3.363c0-1.263.517-2.473 1.436-3.364a4.961 4.961 0 013.461-1.396c1.299 0 2.544.502 3.462 1.396a4.664 4.664 0 010 6.727zm-1.987-1.924a1.993 1.993 0 00.261-2.57 2.128 2.128 0 00-2.542-.75c-.923.372-1.448 1.325-1.253 2.278.195.952 1.055 1.638 2.054 1.638a2.039 2.039 0 001.48-.596zm9.215-6.283h1.992L23.055 37.312h-2.037l10.67-19.024zm5.552 17.515c-1.922 1.795-4.969 1.765-6.853-.067a4.663 4.663 0 01-.07-6.66c1.923-1.795 4.97-1.765 6.854.067a4.663 4.663 0 01.069 6.66zm-1.98-4.8a2.143 2.143 0 00-2.649-.259 2.007 2.007 0 00-.776 2.475c.382.9 1.365 1.411 2.347 1.222.982-.19 1.689-1.027 1.689-2a1.932 1.932 0 00-.61-1.438z" fill="#FFF" fill-rule="nonzero"/></g></svg>