<svg width="99" height="25" xmlns="http://www.w3.org/2000/svg" xmlns:xlink="http://www.w3.org/1999/xlink"><defs><path d="M12.336.412a12.06 12.06 0 018.84 3.853l-3.46 3.46a7.186 7.186 0 00-5.38-2.428c-3.976 0-7.115 3.235-7.115 7.21 0 3.976 3.14 7.21 7.115 7.21 2.113 0 4.01-.92 5.33-2.372l3.459 3.459a12.06 12.06 0 01-8.79 3.798C5.668 24.602.034 19.176.034 12.507.033 5.837 5.667.412 12.336.412z" id="a"/></defs><g fill="#FFF" fill-rule="evenodd"><path d="M98.941.807v3.911l-12.87 14.976h12.87v4.513H79.452v-3.911L92.322 5.32H79.853V.807zm-33.58-.53c6.767 0 12.272 5.505 12.272 12.271 0 .712-.064 1.408-.181 2.086l-4.79-1.95c.002-.046.008-.09.008-.136 0-4.03-3.279-7.308-7.309-7.308s-7.308 3.279-7.308 7.308c0 4.03 3.279 7.309 7.308 7.309.037 0 .071-.005.108-.006l1.952 4.793c-.67.113-1.358.176-2.06.176-6.766 0-12.27-5.505-12.27-12.272 0-6.766 5.504-12.27 12.27-12.27zm-.07 12.23l12.314 5.016-4.456 1.491 4.166 4.167-1.35 1.349-4.166-4.166-1.491 4.456-5.016-12.313zM44.116.044h6.675V24.97h-6.675zM29.378.807v18.72h11.667v4.68H24.23V.807z"/><use xlink:href="#a"/></g></svg>