<svg width="19" height="19" xmlns="http://www.w3.org/2000/svg"><defs><filter x="-3%" y="-3%" width="107.7%" height="113.7%" filterUnits="objectBoundingBox" id="a"><feOffset dy="1" in="SourceAlpha" result="shadowOffsetOuter1"/><feColorMatrix values="0 0 0 0 1 0 0 0 0 1 0 0 0 0 1 0 0 0 1 0" in="shadowOffsetOuter1" result="shadowMatrixOuter1"/><feMerge><feMergeNode in="shadowMatrixOuter1"/><feMergeNode in="SourceGraphic"/></feMerge></filter></defs><g fill="none" fill-rule="evenodd" opacity=".428"><path fill="#848484" d="M11.913 17.04l.975-2.913 2.725 2.724.882-.882-2.724-2.725 2.914-.976-8.053-3.28z"/><g filter="url(#a)" transform="translate(.285 .619)"><mask id="b" fill="#fff"><path d="M.001 8.35c0 4.602 3.744 8.347 8.347 8.347.477 0 .945-.043 1.4-.12l-1.327-3.26c-.025 0-.049.004-.073.004-2.741 0-4.971-2.23-4.971-4.971s2.23-4.97 4.97-4.97a4.976 4.976 0 014.971 4.97c0 .03-.004.06-.004.092l3.257 1.327a8.36 8.36 0 00.123-1.42c0-4.601-3.744-8.346-8.346-8.346C3.745.003 0 3.748 0 8.35z"/></mask><path fill="#848484" mask="url(#b)" d="M-.432 17.13h17.56V-.43H-.433z"/></g></g></svg>