<svg width="56" height="56" xmlns="http://www.w3.org/2000/svg"><g fill="none" fill-rule="evenodd"><circle cx="28" cy="28" r="28" fill="#00AEF0"/><path d="M34.915 16.035c0-.162-.097-.446-.192-.556-.44-.535-1.281-.602-1.878-.152l-2.513 2.012h3.391c.659 0 1.192-.52 1.192-1.16v-.144zm-9.453 1.304l-2.51-2.01a1.46 1.46 0 00-.883-.292c-.383 0-.756.149-.996.442-.095.11-.19.394-.19.556v.143c0 .641.534 1.16 1.192 1.16h3.387zm11.605-3.73c.533.633.86 1.542.86 2.376v.141c0 2.23-1.884 4.041-4.204 4.041H22.075c-2.318 0-4.206-1.811-4.206-4.041v-.14c0-.835.331-1.744.865-2.374 1.475-1.753 4.21-2.016 6.093-.59l3.068 2.428 3.076-2.43c1.886-1.425 4.616-1.16 6.096.588zm-11.143 8.07h3.942v5.72h-3.942v-5.72zm5.923 0h9.767v5.72h-9.767v-5.72zm0 7.723h7.784v9.582c0 2.134-1.775 3.862-3.966 3.862h-3.818V29.402zm-7.93 0h-7.783v9.582c0 2.134 1.775 3.862 3.966 3.862h3.817V29.402zm-9.766-7.723h9.766v5.72h-9.766v-5.72zm11.773 7.698h3.942v13.469h-3.942v-13.47z" fill="#FFF" fill-rule="nonzero"/></g></svg>