<svg width="15" height="14" xmlns="http://www.w3.org/2000/svg"><path d="M8.945.33c1.75.551 3.074 1.657 3.982 3.27.2.355.362.728.494 1.114l.074.206c.17-.367.323-.693.473-1.02a.648.648 0 01.283-.329c.344-.176.763.1.749.493a.597.597 0 01-.056.228l-1.004 2.18a.567.567 0 01-.28.294.53.53 0 01-.464-.01c-.72-.334-1.44-.668-2.157-1.006-.237-.112-.358-.32-.338-.554a.525.525 0 01.37-.453.562.562 0 01.414.047l.87.412c.044.02.085.054.158.047-.073-.203-.133-.405-.217-.598-.344-.795-.82-1.5-1.471-2.068C9.358 1.305 7.665.782 5.76 1.19c-2.23.478-3.703 1.87-4.428 4.054a5.51 5.51 0 00-.126 3.046c.44 1.863 1.512 3.23 3.212 4.062a5.486 5.486 0 003.665.45c1.656-.362 2.945-1.268 3.838-2.734a5.614 5.614 0 00.675-1.666.566.566 0 01.27-.385.473.473 0 01.543.025.505.505 0 01.22.494c-.036.307-.138.597-.243.883-.588 1.595-1.608 2.836-3.076 3.658-1.945 1.089-3.972 1.22-6.037.365C2.76 12.816 1.6 11.763.846 10.297-.284 8.1-.283 5.874.852 3.672A6.563 6.563 0 013.728.8C5.4-.068 7.148-.237 8.945.329zM6.452 3.2c.229-.009.41.12.463.33a.997.997 0 01.026.25c0 1.092.001 2.185-.003 3.278 0 .108.035.17.135.227.714.404 1.425.812 2.135 1.223.287.166.326.455.102.677-.15.15-.343.173-.542.059-.56-.32-1.117-.642-1.675-.963-.288-.165-.575-.331-.865-.493-.162-.09-.22-.226-.22-.394V3.763c0-.068.006-.137.018-.204a.427.427 0 01.426-.358z" fill="#F7B500" fill-rule="evenodd"/></svg>