<svg width="19" height="18" xmlns="http://www.w3.org/2000/svg"><g fill="none" fill-rule="evenodd"><path d="M17.761 9.166a8.24 8.24 0 01-8.24 8.24 8.24 8.24 0 01-8.24-8.24 8.24 8.24 0 018.24-8.24 8.24 8.24 0 018.24 8.24" stroke="#8B959E" stroke-width=".902" fill="#FFF" opacity=".543"/><path d="M5.862 8.537a1.158 1.158 0 011.154-1.154 1.157 1.157 0 011.147 1.15c0 .627-.517 1.144-1.148 1.148a1.158 1.158 0 01-1.153-1.144m6.208 1.139c-.603.059-1.148-.421-1.21-1.067-.055-.572.419-1.147.974-1.215a1.158 1.158 0 011.32 1.055 1.146 1.146 0 01-1.084 1.227" fill="#8B959E"/><path d="M6.68 13.002s1.137 1.136 2.842 1.136c.606 0 1.14-.143 1.577-.328" stroke="#8B959E" stroke-width="1.137" stroke-linecap="round"/></g></svg>