<svg width="76" height="76" xmlns="http://www.w3.org/2000/svg" xmlns:xlink="http://www.w3.org/1999/xlink"><defs><filter x="-26.8%" y="-26.8%" width="153.6%" height="153.6%" filterUnits="objectBoundingBox" id="a"><feOffset in="SourceAlpha" result="shadowOffsetOuter1"/><feGaussianBlur stdDeviation="5" in="shadowOffsetOuter1" result="shadowBlurOuter1"/><feColorMatrix values="0 0 0 0 0 0 0 0 0 0 0 0 0 0 0 0 0 0 0.16 0" in="shadowBlurOuter1"/></filter><circle id="b" cx="28" cy="28" r="28"/></defs><g fill="none" fill-rule="evenodd"><g transform="translate(10 10)"><use fill="#000" filter="url(#a)" xlink:href="#b"/><use fill="#00AEF6" xlink:href="#b"/></g><path d="M28.665 53.977c-2.415 0-2.403-2.15-2.403-2.834V38.556c0-.14.084-.247.189-.247h7.15v15.668h-4.936zm16.944-28.54c0-.177-.106-.488-.208-.609-.477-.587-1.39-.661-2.034-.168l-2.721 2.207h3.673c.71 0 1.29-.57 1.29-1.273v-.156zm-10.239 1.43l-2.715-2.205a1.575 1.575 0 00-.956-.32c-.415 0-.819.163-1.078.486-.103.12-.206.432-.206.61v.156c0 .703.577 1.273 1.29 1.273h3.665zm12.566-4.162c.58.664.934 1.62.934 2.496v.148c0 2.343-2.04 4.247-4.551 4.247H31.705c-2.512 0-4.554-1.904-4.554-4.247V25.2c0-.877.356-1.832.933-2.492 1.6-1.842 4.562-2.12 6.601-.621l3.322 2.55 3.331-2.552c2.04-1.498 4.998-1.22 6.598.619zm-11.497 8.399h2.984v5.607h-2.984v-5.607zm5.802 0h10.355v5.607H42.241v-5.607zm-18.977 0h10.355v5.607H23.264v-5.607zm13.175 7.273h2.984V53.94h-2.984V38.377zm5.858 15.609V38.318h7.15c.105 0 .19.107.19.247v12.587c0 .683.011 2.834-2.404 2.834h-4.936z" fill="#FFF"/></g></svg>