<svg width="110" height="11" xmlns="http://www.w3.org/2000/svg"><path d="M3.144 4.54H5.3v3.108c0 .793-.194 1.402-.581 1.827-.387.425-.959.637-1.715.637-.756 0-1.328-.212-1.715-.637C.902 9.05.708 8.441.708 7.648V2.552c0-.793.194-1.402.581-1.827C1.676.3 2.248.088 3.004.088c.756 0 1.328.212 1.715.637.387.425.581 1.034.581 1.827v.952H3.844v-1.05c0-.355-.072-.604-.217-.749-.145-.145-.338-.217-.581-.217-.243 0-.436.072-.581.217-.145.145-.217.394-.217.749v5.292c0 .355.072.602.217.742.145.14.338.21.581.21.243 0 .436-.07.581-.21.145-.14.217-.387.217-.742V5.94h-.7v-1.4zM7.834 10h-1.54V.2h1.54v4.2h1.75V.2h1.568V10H9.584V5.8h-1.75V10zm4.312-7.448c0-.793.2-1.402.602-1.827.401-.425.98-.637 1.736-.637S15.819.3 16.22.725c.401.425.602 1.034.602 1.827v5.096c0 .793-.2 1.402-.602 1.827-.401.425-.98.637-1.736.637s-1.335-.212-1.736-.637c-.401-.425-.602-1.034-.602-1.827V2.552zm1.54 5.194c0 .355.072.604.217.749.145.145.338.217.581.217.243 0 .436-.072.581-.217.145-.145.217-.394.217-.749V2.454c0-.355-.072-.604-.217-.749-.145-.145-.338-.217-.581-.217-.243 0-.436.072-.581.217-.145.145-.217.394-.217.749v5.292zm3.934-5.194c0-.793.189-1.402.567-1.827.378-.425.945-.637 1.701-.637.756 0 1.323.212 1.701.637.378.425.567 1.034.567 1.827v.378H20.7v-.476c0-.355-.068-.604-.203-.749-.135-.145-.324-.217-.567-.217-.243 0-.432.072-.567.217-.135.145-.203.394-.203.749 0 .336.075.632.224.889.15.257.336.5.56.728.224.229.464.457.721.686.257.229.497.478.721.749.224.27.41.579.56.924.15.345.224.751.224 1.218 0 .793-.194 1.402-.581 1.827-.387.425-.959.637-1.715.637-.756 0-1.328-.212-1.715-.637-.387-.425-.581-1.034-.581-1.827v-.672h1.456v.77c0 .355.072.602.217.742.145.14.338.21.581.21.243 0 .436-.07.581-.21.145-.14.217-.387.217-.742a1.74 1.74 0 00-.224-.889 3.7 3.7 0 00-.56-.728 14.661 14.661 0 00-.721-.686 6.851 6.851 0 01-.721-.749 3.812 3.812 0 01-.56-.924c-.15-.345-.224-.751-.224-1.218zM22.632.2h4.76v1.4h-1.61V10h-1.54V1.6h-1.61V.2zm7 4.13h2.114v1.4h-2.114V8.6h2.66V10h-4.2V.2h4.2v1.4h-2.66v2.73zm5.152-2.73v3.01h.602c.29 0 .516-.075.679-.224.163-.15.245-.42.245-.812v-.966c0-.355-.063-.611-.189-.77-.126-.159-.324-.238-.595-.238h-.742zm1.68 8.4a4.399 4.399 0 00-.056-.182 1.411 1.411 0 01-.049-.21 2.583 2.583 0 01-.028-.322c-.005-.13-.007-.294-.007-.49v-1.54c0-.457-.08-.78-.238-.966-.159-.187-.415-.28-.77-.28h-.532V10h-1.54V.2h2.324c.803 0 1.384.187 1.743.56.36.373.539.938.539 1.694v.77c0 1.008-.336 1.67-1.008 1.988.392.159.66.418.805.777.145.36.217.796.217 1.309V8.81c0 .243.01.455.028.637.019.182.065.366.14.553h-1.568zm3.71-3.248L38.228.2h1.61l1.176 4.466L42.19.2h1.47l-1.946 6.552V10h-1.54V6.752zM47.986 1.6v3.01h.602c.29 0 .516-.075.679-.224.163-.15.245-.42.245-.812v-.966c0-.355-.063-.611-.189-.77-.126-.159-.324-.238-.595-.238h-.742zm1.68 8.4a4.399 4.399 0 00-.056-.182 1.411 1.411 0 01-.049-.21 2.583 2.583 0 01-.028-.322c-.005-.13-.007-.294-.007-.49v-1.54c0-.457-.08-.78-.238-.966-.159-.187-.415-.28-.77-.28h-.532V10h-1.54V.2h2.324c.803 0 1.384.187 1.743.56.36.373.539.938.539 1.694v.77c0 1.008-.336 1.67-1.008 1.988.392.159.66.418.805.777.145.36.217.796.217 1.309V8.81c0 .243.01.455.028.637.019.182.065.366.14.553h-1.568zm3.948-5.67h2.114v1.4h-2.114V8.6h2.66V10h-4.2V.2h4.2v1.4h-2.66v2.73zm7.028.448L60.082 10h-2.114L56.876.2h1.498l.826 7.728L59.942.2h1.484l.77 7.784L62.994.2h1.344L63.246 10h-2.044l-.56-5.222zm5.726 2.114h1.484l-.742-4.956-.742 4.956zM69.882 10h-1.554l-.266-1.778h-1.89L65.906 10h-1.414L66.06.2h2.254l1.568 9.8zm2.254-8.4v3.01h.602c.29 0 .516-.075.679-.224.163-.15.245-.42.245-.812v-.966c0-.355-.063-.611-.189-.77-.126-.159-.324-.238-.595-.238h-.742zm1.68 8.4a4.399 4.399 0 00-.056-.182 1.411 1.411 0 01-.049-.21 2.583 2.583 0 01-.028-.322c-.005-.13-.007-.294-.007-.49v-1.54c0-.457-.08-.78-.238-.966-.159-.187-.415-.28-.77-.28h-.532V10h-1.54V.2h2.324c.803 0 1.384.187 1.743.56.36.373.539.938.539 1.694v.77c0 1.008-.336 1.67-1.008 1.988.392.159.66.418.805.777.145.36.217.796.217 1.309V8.81c0 .243.01.455.028.637.019.182.065.366.14.553h-1.568zm3.948-8.4v7h.868c.243 0 .434-.07.574-.21.14-.14.21-.387.21-.742V2.552c0-.355-.07-.602-.21-.742-.14-.14-.331-.21-.574-.21h-.868zM76.224.2h2.436c.775 0 1.351.205 1.729.616.378.41.567 1.013.567 1.806v4.956c0 .793-.189 1.395-.567 1.806-.378.41-.954.616-1.729.616h-2.436V.2zm5.516 2.352c0-.793.189-1.402.567-1.827.378-.425.945-.637 1.701-.637.756 0 1.323.212 1.701.637.378.425.567 1.034.567 1.827v.378H84.82v-.476c0-.355-.068-.604-.203-.749-.135-.145-.324-.217-.567-.217-.243 0-.432.072-.567.217-.135.145-.203.394-.203.749 0 .336.075.632.224.889.15.257.336.5.56.728.224.229.464.457.721.686.257.229.497.478.721.749.224.27.41.579.56.924.15.345.224.751.224 1.218 0 .793-.194 1.402-.581 1.827-.387.425-.959.637-1.715.637-.756 0-1.328-.212-1.715-.637-.387-.425-.581-1.034-.581-1.827v-.672h1.456v.77c0 .355.072.602.217.742.145.14.338.21.581.21.243 0 .436-.07.581-.21.145-.14.217-.387.217-.742a1.74 1.74 0 00-.224-.889 3.7 3.7 0 00-.56-.728 14.661 14.661 0 00-.721-.686 6.851 6.851 0 01-.721-.749 3.812 3.812 0 01-.56-.924c-.15-.345-.224-.751-.224-1.218zM89.342.2H91.4c1.47 0 2.002.728 2.002 2.086v.56c0 1.064-.294 1.722-1.288 1.932 1.064.21 1.47.994 1.47 2.1v.854c0 1.414-.644 2.268-2.142 2.268h-2.1V.2zm.644 4.326h1.092c1.148 0 1.68-.308 1.68-1.554v-.63c0-1.022-.322-1.554-1.372-1.554h-1.4v3.738zm0 4.886h1.456c1.078 0 1.498-.602 1.498-1.694v-.882c0-1.274-.574-1.722-1.736-1.722h-1.218v4.298zm5.292-4.676h2.674v.588h-2.674v4.088h3.22V10h-3.864V.2h3.864v.588h-3.22v3.948zM101.886 10h-.644V.788H99.24V.2h4.634v.588h-1.988V10zm6.286-2.17h-3.052l-.49 2.17h-.588l2.142-9.814h.938L109.306 10h-.644l-.49-2.17zm-1.54-6.902l-1.414 6.342h2.856L106.632.928z" fill="#4A4A4A" fill-rule="evenodd"/></svg>