<svg width="43" height="39" xmlns="http://www.w3.org/2000/svg"><g fill="#fff"><path d="M33.993 27.188c-1.397-3.08-1.637-5.69-1.675-6.716v-8.44C32.318 5.586 26.844.36 20.091.36 13.337.36 7.862 5.586 7.862 12.032v8.562c-.052 1.103-.326 3.633-1.669 6.594-1.804 3.979-.311 3.505 1.027 3.177 1.337-.326 4.325-1.603 5.258-.03.933 1.574 1.711 2.94 3.889 2.05 2.178-.89 3.204-1.188 3.515-1.188h.423c.31 0 1.337.297 3.515 1.188 2.178.89 2.956-.476 3.889-2.05.933-1.573 3.92-.296 5.258.03 1.337.328 2.83.802 1.026-3.177M16.317 6.725c1.317 0 2.385 1.612 2.385 3.602 0 1.99-1.068 3.603-2.385 3.603-1.317 0-2.386-1.613-2.386-3.603 0-1.99 1.069-3.602 2.386-3.602m3.774 14.4c-2.902 0-5.346-2.726-6.082-5.76 1.422 1.866 3.617 3.065 6.082 3.065s4.66-1.2 6.081-3.066c-.736 3.035-3.18 5.761-6.081 5.761m3.774-7.195c-1.318 0-2.385-1.613-2.385-3.603 0-1.99 1.067-3.602 2.385-3.602 1.318 0 2.385 1.612 2.385 3.602 0 1.99-1.067 3.603-2.385 3.603"/><path d="M41.098 26.463l-4.409 3.525a.898.898 0 00-.302.888l1.323 5.322a1.273 1.273 0 01-1.23 1.57c-.232 0-.464-.068-.673-.205l-4.804-2.889a.857.857 0 00-.928 0l-4.757 2.89a1.302 1.302 0 01-.697.204c-.765 0-1.462-.705-1.23-1.57l1.323-5.322c.07-.319-.023-.66-.302-.865l-4.293-3.548c-.882-.751-.371-2.184.766-2.252l5.616-.387a.911.911 0 00.766-.546l2.135-5.118a1.314 1.314 0 012.414 0l2.135 5.118c.116.296.417.5.765.546l5.616.387c1.16.068 1.671 1.5.766 2.252z" stroke="#5B005C" stroke-width="1.36"/></g></svg>