<svg width="73" height="75" xmlns="http://www.w3.org/2000/svg"><g fill="#FFF"><path d="M56.212 52.713c-2.708-5.973-3.174-11.034-3.247-13.023V23.33c0-12.5-10.614-22.631-23.707-22.631C16.164.698 5.55 10.83 5.55 23.328v16.599c-.102 2.139-.634 7.045-3.236 12.786-3.5 7.714-.604 6.794 1.99 6.16 2.593-.632 8.385-3.11 10.195-.058 1.808 3.05 3.317 5.7 7.539 3.972 4.222-1.726 6.212-2.301 6.815-2.301h.82c.602 0 2.593.575 6.815 2.301 4.222 1.728 5.73-.921 7.54-3.972 1.809-3.052 7.6-.574 10.194.058 2.594.634 5.488 1.554 1.99-6.16M21.94 13.038c2.553 0 4.624 3.127 4.624 6.985 0 3.858-2.07 6.985-4.624 6.985s-4.625-3.127-4.625-6.985c0-3.858 2.071-6.985 4.625-6.985m7.317 27.92c-5.627 0-10.363-5.287-11.79-11.17 2.756 3.619 7.011 5.944 11.79 5.944 4.779 0 9.034-2.325 11.791-5.943-1.427 5.882-6.165 11.168-11.79 11.168m7.317-13.949c-2.555 0-4.625-3.127-4.625-6.985 0-3.858 2.07-6.985 4.625-6.985s4.623 3.127 4.623 6.985c0 3.858-2.068 6.985-4.623 6.985"/><path d="M69.987 51.306L61.44 58.14c-.495.397-.72 1.059-.585 1.72l2.564 10.32c.36 1.676-.9 3.044-2.384 3.044-.45 0-.9-.133-1.305-.397l-9.314-5.601a1.662 1.662 0 00-1.8 0l-9.223 5.6c-.405.265-.9.398-1.35.398-1.485 0-2.835-1.368-2.385-3.044l2.565-10.32c.135-.617-.045-1.278-.585-1.675l-8.324-6.88c-1.71-1.456-.72-4.234 1.485-4.367l10.888-.75a1.766 1.766 0 001.485-1.058l4.14-9.923a2.547 2.547 0 012.34-1.543c.944 0 1.889.529 2.339 1.543l4.14 9.923c.224.574.81.97 1.484 1.059l10.889.75c2.25.132 3.24 2.91 1.484 4.366z" stroke="#5B005C" stroke-width="2.637"/></g></svg>