<svg width="120" height="19" xmlns="http://www.w3.org/2000/svg"><g fill="#FFF" fill-rule="evenodd"><path d="M45.447 0c2.374 0 4.747.907 6.557 2.72 3.622 3.627 3.622 9.507 0 13.133a9.234 9.234 0 01-6.557 2.72 9.236 9.236 0 01-6.518-2.688l3.304-2.085a5.506 5.506 0 007.137-.584 5.57 5.57 0 000-7.858 5.508 5.508 0 00-3.923-1.627 5.5 5.5 0 00-2.983.88l-3.322-2.097C40.92.854 43.177 0 45.447 0zm40.618.512v3.48h-9.406v3.703h8.29v3.48h-8.29v6.735h-3.823V.512h13.229zm-15.663 0v3.48h-9.405v3.703h8.289v3.48h-8.29v6.735h-3.822V.512h13.228zm26.243 0c2.208 0 3.92.622 5.063 1.765.968.97 1.489 2.336 1.489 3.976v.05c0 2.809-1.514 4.574-3.724 5.393l4.246 6.214h-4.468l-3.722-5.568h-3.003v5.568h-3.822V.512h7.941zm23.332 0V3.42l-9.554 11.133h9.554v3.356H105.51v-2.908l9.555-11.135h-9.257V.512h14.17zM96.323 3.966h-3.797v4.996h3.872c1.86 0 2.928-.994 2.928-2.46v-.05c0-1.64-1.142-2.486-3.003-2.486z"/><path d="M4.143.584l4.59 7.319 4.591-7.32h4.142v17.308h-3.818V6.593l-4.915 7.392h-.1L3.769 6.667V17.89H0V.584h4.143zm19.591 0l4.167 6.948L32.143.584h4.366l-6.712 10.41v6.897h-3.843v-6.823L19.244.584h4.49zm13.595 4.304l6.994 4.318-7.07 4.384a9.126 9.126 0 01-1.062-4.277c0-1.603.413-3.111 1.138-4.425z"/></g></svg>