<svg width="22" height="23" xmlns="http://www.w3.org/2000/svg"><path d="M4.582 22.984c-1.66 0-1.652-1.499-1.652-1.975v-8.773c0-.097.058-.172.13-.172h4.916v10.92H4.582zM16.231 3.093a.862.862 0 00-.143-.425c-.328-.409-.956-.461-1.398-.117l-1.871 1.538h2.525a.888.888 0 00.887-.887v-.109zm-7.039.996L7.325 2.552a1.073 1.073 0 00-.657-.223.935.935 0 00-.741.339.85.85 0 00-.142.425v.109c0 .49.397.887.887.887h2.52zm8.639-2.901c.399.463.642 1.129.642 1.74v.103c0 1.633-1.402 2.96-3.129 2.96H6.672c-1.727 0-3.131-1.327-3.131-2.96v-.103c0-.611.245-1.277.642-1.737C5.283-.093 7.319-.286 8.721.758l2.284 1.778 2.29-1.779c1.402-1.044 3.436-.85 4.536.431zM9.927 7.042h2.051v3.908H9.927V7.042zm3.989 0h7.119v3.908h-7.119V7.042zm-13.047 0h7.119v3.908H.869V7.042zm9.058 5.069h2.051v10.848H9.927V12.111zm4.027 10.879V12.07h4.916c.072 0 .13.075.13.172v8.773c0 .476.008 1.975-1.652 1.975h-3.394z" fill-rule="evenodd" style="fill:#fff"/></svg>