<svg width="78" height="23" xmlns="http://www.w3.org/2000/svg"><g fill="#BEC3C8" fill-rule="evenodd"><path d="M24.485 19.572l4.267-2.845-4.221-2.803a6.28 6.28 0 00-.687 2.872c0 1.003.233 1.945.641 2.776M2 11.13h2.5l2.77 4.75 2.772-4.75h2.5v11.234h-2.304V15.03L7.27 19.828h-.06l-2.937-4.75v7.286H2V11.13m15.665 6.805l-4.05-6.804h2.71l2.515 4.509 2.56-4.51h2.636l-4.051 6.757v4.477h-2.32v-4.429m18.917-6.805h8.027v2.247h-5.707v2.392h5.03v2.246h-5.03v4.349h-2.32V11.13m9.504 0h8.027v2.247h-5.707v2.392h5.03v2.246h-5.03v4.349h-2.32V11.13m14.297 5.457c1.13 0 1.777-.642 1.777-1.589v-.032c0-1.059-.693-1.605-1.822-1.605h-2.304v3.226h2.35zm-4.669-5.456h4.82c1.34 0 2.379.401 3.072 1.139.587.626.903 1.509.903 2.567v.033c0 1.813-.919 2.953-2.26 3.482l2.577 4.012h-2.711l-2.259-3.595h-1.822v3.595h-2.32V11.13zm10.198 9.355l5.798-7.189h-5.617v-2.166h8.599v1.878l-5.798 7.188h5.798v2.167h-8.78v-1.878"/><path d="M33.445 12.556c-1.099-1.17-2.539-1.756-3.98-1.756-1.377 0-2.746.552-3.825 1.623l2.015 1.354a3.194 3.194 0 011.81-.568c.9 0 1.746.373 2.382 1.05 1.312 1.4 1.312 3.676 0 5.074a3.243 3.243 0 01-2.381 1.051 3.195 3.195 0 01-1.95-.674l-2.005 1.347c1.095 1.155 2.525 1.735 3.955 1.735 1.44 0 2.88-.585 3.979-1.756 2.197-2.341 2.197-6.138 0-8.48"/><path d="M26.827 1.673h2.085c1.041 0 1.758.72 1.758 1.776 0 1.04-.739 1.757-1.783 1.757h-1.233V7h-.827V1.673zm.827.731V4.48h1.04c.713 0 1.13-.37 1.13-1.03 0-.676-.402-1.045-1.13-1.045h-1.04zm6.349-.86c1.532 0 2.484 1.074 2.484 2.79 0 1.714-.945 2.795-2.484 2.795-1.55 0-2.488-1.078-2.488-2.794 0-1.72.96-2.79 2.488-2.79zm0 .772c-1.008 0-1.643.782-1.643 2.019 0 1.229.617 2.023 1.643 2.023 1.011 0 1.639-.794 1.639-2.023 0-1.237-.631-2.02-1.64-2.02zm6.416.775L39.278 7h-.783L37.06 1.673h.86l.979 4.08h.051l1.111-4.08h.768l1.119 4.08h.051l.975-4.08h.86L42.393 7h-.778L40.47 3.09h-.051zm7.792 3.156V7H44.83V1.673h3.381v.753h-2.554v1.506h2.418v.717h-2.418v1.598h2.554zm2.02-3.846v1.864h1.188c.639 0 1.008-.34 1.008-.934 0-.58-.392-.93-1.03-.93H50.23zm0 2.569V7h-.828V1.673h2.108c1.074 0 1.765.639 1.765 1.64 0 .715-.384 1.299-1.034 1.52L53.438 7h-.956l-1.085-2.03H50.23zm7.604 1.277V7h-3.382V1.673h3.382v.753H55.28v1.506h2.418v.717H55.28v1.598h2.555zm1.192-4.574h1.923c1.58 0 2.507.971 2.507 2.647 0 1.702-.92 2.68-2.507 2.68h-1.923V1.673zm.827.753v3.821h1.004c1.115 0 1.757-.694 1.757-1.916 0-1.203-.653-1.905-1.757-1.905h-1.004zM68.83 7h-2.189V1.673h2.141c1 0 1.602.51 1.602 1.33 0 .557-.41 1.055-.934 1.144v.062c.72.074 1.2.587 1.2 1.281 0 .938-.683 1.51-1.82 1.51zm-1.36-4.625v1.554h.982c.731 0 1.111-.27 1.111-.775 0-.491-.358-.78-.97-.78H67.47zm0 3.924h1.196c.746 0 1.14-.303 1.14-.868 0-.557-.409-.849-1.188-.849H67.47V6.3zM73.86 7h-.827V4.852l-1.875-3.179h.919l1.34 2.307h.063l1.34-2.307h.919L73.86 4.852V7z" fill-rule="nonzero"/></g></svg>